<svg id="Layer_1" data-name="Layer 1" xmlns="http://www.w3.org/2000/svg" viewBox="0 0 116.09763 34.4707"><defs><style>.cls-1,.cls-2{fill:#004667;}.cls-1,.cls-3,.cls-5,.cls-7{fill-rule:evenodd;}.cls-17,.cls-3{fill:#f0c788;}.cls-10,.cls-11,.cls-12,.cls-13,.cls-15,.cls-16,.cls-18,.cls-4,.cls-6,.cls-8,.cls-9{fill:none;stroke-miterlimit:3.864;}.cls-11,.cls-18,.cls-4{stroke:#f0c788;}.cls-15,.cls-16,.cls-4,.cls-6{stroke-width:0.073px;}.cls-5{fill:#dd9300;}.cls-6,.cls-9{stroke:#dd9300;}.cls-7{fill:#609ab3;}.cls-8{stroke:#609ab3;}.cls-10,.cls-11,.cls-8{stroke-width:0.014px;}.cls-9{stroke-width:0.096px;}.cls-10,.cls-12,.cls-13,.cls-16{stroke:#004667;}.cls-12{stroke-width:0.018px;}.cls-13{stroke-width:0.022px;}.cls-14{fill:#9fc1d1;}.cls-15{stroke:#9fc1d1;}.cls-18{stroke-width:0;}</style></defs><title>logo</title><path class="cls-1" d="M44.2574,30.23219l-0.2813.0166a1.22835,1.22835,0,0,0-1.27879-.8232,1.40355,1.40355,0,0,0-1.08111.4961,1.74574,1.74574,0,0,0-.4448,1.2119,2.051,2.051,0,0,0,.5098,1.3779,1.40973,1.40973,0,0,0,1.0742.5684,1.54557,1.54557,0,0,0,1.29491-.4687l0.15679,0.2382a1.57,1.57,0,0,1-.5347.461,2.38022,2.38022,0,0,1-2.5259-.4785,2.15914,2.15914,0,0,1-.70019-1.6231,2.055,2.055,0,0,1,.68409-1.5137,2.16708,2.16708,0,0,1,1.5537-.664,3.16474,3.16474,0,0,1,1.13621.249,0.65244,0.65244,0,0,0,.37989.0332l0.0572,0.0322v0.8867Z" transform="translate(-0.05544 -0.05468)"/><path class="cls-1" d="M48.8116,29.26149q-0.05715,1.01955-.0581,2,0,0.82335.0581,1.9913l-0.0581.1474H48.0782l-0.065-.1474,0.041-.8799q0.02416-.4293.024-1.1114,0-.6504-0.065-2l0.065-.1396h0.6753Z" transform="translate(-0.05544 -0.05468)"/><path class="cls-1" d="M56.5762,29.48319l-1.103-.0244c-0.1411,0-.378.0068-0.7071,0.0156q-0.049.8496-.04879,1.7871,0,0.84825.05709,2.0411l-0.041.0976H54.00831l-0.041-.0976,0.041-.8731q0.01619-.4599.01709-1.168c0-.4619-0.0063-0.8398-0.019-1.1357l-0.03909-.6582c-0.31591-.0059-0.54291-0.0088-0.67921-0.0088-0.13079,0-.4936.0088-1.08979,0.0244a1.12594,1.12594,0,0,1,.07419-0.3613h4.23881a1.39449,1.39449,0,0,1,.06489.3613" transform="translate(-0.05544 -0.05468)"/><path class="cls-1" d="M63.49031,29.17849c-0.10551.1543-.26571,0.3848-0.48541,0.6924q-0.35295.5259-1.0625,1.5293V31.534q0.00886,0.3354.0674,1.7686l-0.041.0976H61.2354l-0.041-.0976q0.05715-1.399.0576-1.7686v-0.1982q-0.5274-.75585-1.09569-1.5069c-0.09961-.1474-0.249-0.3633-0.45121-0.6504l0.03221-.0566H60.4366l0.0908,0.0566c0.082,0.1377.2031,0.3399,0.3623,0.6094q0.44385,0.80715.8555,1.416a14.18921,14.18921,0,0,0,.8232-1.375l0.3623-.6504,0.0908-.0566h0.4356Z" transform="translate(-0.05544 -0.05468)"/><path class="cls-1" d="M76.0879,30.23219l-0.2812.0166a1.22773,1.22773,0,0,0-1.2783-.8232,1.407,1.407,0,0,0-1.08209.4961,1.75026,1.75026,0,0,0-.44531,1.2119,2.03942,2.03942,0,0,0,.5127,1.3779,1.40384,1.40384,0,0,0,1.0723.5684,1.5479,1.5479,0,0,0,1.2959-.4687l0.1562,0.2382a1.5718,1.5718,0,0,1-.5351.461,2.32362,2.32362,0,0,1-3.2256-2.1016,2.053,2.053,0,0,1,.6826-1.5137,2.171,2.171,0,0,1,1.5566-.664,3.16886,3.16886,0,0,1,1.1348.249,0.65177,0.65177,0,0,0,.37991.0332l0.05659,0.0322v0.8867Z" transform="translate(-0.05544 -0.05468)"/><path class="cls-1" d="M84.0909,31.25368a2.12479,2.12479,0,0,1-.7364,1.5879,2.3377,2.3377,0,0,1-1.6338.6914,2.31308,2.31308,0,0,1-1.65039-.6836,2.13536,2.13536,0,0,1,.02449-3.205,2.25935,2.25935,0,0,1,3.2714-.0049,2.1767,2.1767,0,0,1,.7247,1.6142m-0.7247,0a2.10818,2.10818,0,0,0-.5576-1.3711,1.54955,1.54955,0,0,0-1.1582-.58,1.42091,1.42091,0,0,0-1.1455.5761,1.95846,1.95846,0,0,0-.4219,1.375,2.09748,2.09748,0,0,0,.5586,1.3692,1.54511,1.54511,0,0,0,1.1563.582,1.41657,1.41657,0,0,0,1.1338-.5781,1.96439,1.96439,0,0,0,.4345-1.3731" transform="translate(-0.05544 -0.05468)"/><path class="cls-1" d="M90.8965,29.21268a16.30948,16.30948,0,0,0-.07419,2.0488V32.035a1.68735,1.68735,0,0,1-.34471.831,1.35485,1.35485,0,0,1-1.1114.6094,2.592,2.592,0,0,1-.996-0.1074,1.348,1.348,0,0,1-.6456-0.4277,1.97654,1.97654,0,0,1-.2607-0.9229c-0.0049-.0693-0.0078-0.3223-0.0078-0.7559a15.74731,15.74731,0,0,0-.0742-2.0488l0.041-.0908h0.7002l0.041,0.0908-0.041.8799c-0.0156.3018-.0244,0.6914-0.0244,1.1689a5.76521,5.76521,0,0,0,.0244.6416,2.37616,2.37616,0,0,0,.0986.5264,1.03309,1.03309,0,0,0,1.1113.6748,1.04711,1.04711,0,0,0,.6016-0.2217,1.22854,1.22854,0,0,0,.38571-0.4765,1.81132,1.81132,0,0,0,.13289-0.585c0.0039-.0557.0068-0.2422,0.0068-0.5596q0-.71625-0.0166-1.1689l-0.041-.8799,0.041-.0908h0.4121Z" transform="translate(-0.05544 -0.05468)"/><path class="cls-1" d="M98.0264,33.30259l-0.041.0976h-0.832l-0.1065-.0976a3.48509,3.48509,0,0,0-.2803-0.4122c-0.15329-.1914-0.2539-0.3222-0.3037-0.3945q-0.35445-.52725-1.0947-1.5722-0.1245-.17295-0.37889-0.5088a6.49456,6.49456,0,0,0-.05661.8466q0,0.84825.05661,2.0411l-0.041.0976H94.545l-0.0411-.0976,0.0411-.8731q0.01605-.4599.0156-1.168c0-.1425-0.0098-0.4404-0.02829-0.8964s-0.02841-.7442-0.02841-0.8643v-0.2881l0.0411-.0908h0.4765q0.2856,0.4863.6729,1.0459c0.25191,0.3877.6318,0.9512,1.1396,1.6855,0.3135,0.417.5557,0.7491,0.7315,0.9961l0.00781-.3037q0.02489-.50235.02539-1.2842,0-.71625-0.02539-1.1689l-0.041-.8799,0.041-.0908H97.9854l0.041,0.0908q-0.06585,1.0371-.0664,2.0488,0,0.84825.0664,2.0411" transform="translate(-0.05544 -0.05468)"/><path class="cls-1" d="M105.1895,30.23219l-0.2803.0166a1.22974,1.22974,0,0,0-1.2793-.8232,1.40187,1.40187,0,0,0-1.081.4961,1.74108,1.74108,0,0,0-.4453,1.2119,2.04732,2.04732,0,0,0,.51071,1.3779,1.40712,1.40712,0,0,0,1.07319.5684,1.54777,1.54777,0,0,0,1.2959-.4687l0.1573,0.2382a1.599,1.599,0,0,1-.5352.461,2.32318,2.32318,0,0,1-3.2266-2.1016,2.05445,2.05445,0,0,1,.6836-1.5137,2.16846,2.16846,0,0,1,1.5547-.664,3.17369,3.17369,0,0,1,1.1358.249,0.64972,0.64972,0,0,0,.3789.0332l0.0576,0.0322v0.8867Z" transform="translate(-0.05544 -0.05468)"/><path class="cls-1" d="M109.7432,29.26149q-0.05715,1.01955-.0566,2,0,0.82335.0566,1.9913l-0.0566.1474h-0.6748l-0.06649-.1474,0.042-.8799c0.01569-.2862.02449-0.6563,0.02449-1.1114q0-.6504-0.06649-2l0.06649-.1396h0.6748Z" transform="translate(-0.05544 -0.05468)"/><path class="cls-1" d="M116.1514,32.83279a1.3232,1.3232,0,0,1-.0293.3213,0.93688,0.93688,0,0,1-.085.2891c-0.2539-.0283-1.0293-0.043-2.331-0.043h-0.3369l-0.041-.0976,0.0332-.8731c0.0166-.3066.0234-0.6963,0.0234-1.168,0-.4775-0.0068-0.8671-0.0234-1.1689l-0.0332-.8799,0.041-.0908h0.7148l0.042,0.0908q-0.06585,1.0371-.0644,2.0488,0,0.7809.0556,1.8184a8.3,8.3,0,0,0,1.5977-.0488,0.78155,0.78155,0,0,0,.4365-0.1983" transform="translate(-0.05544 -0.05468)"/><path class="cls-1" d="M69.208,14.23619l-0.1074.6953-10.9751,5.0752a15.76851,15.76851,0,0,0,1.0113,1.789,4.69282,4.69282,0,0,0,4.2851,2.2461,6.95278,6.95278,0,0,0,5.6817-2.9648,2.76666,2.76666,0,0,1-.0342,1.9873,9.7332,9.7332,0,0,1-6.2422,2.7558,8.14868,8.14868,0,0,1-5.9971-2.2851,7.7912,7.7912,0,0,1-2.30079-5.7715,7.78485,7.78485,0,0,1,2.16209-5.6484A7.64639,7.64639,0,0,1,62.4092,9.744a6.80228,6.80228,0,0,1,5.0205,1.9502,23.80633,23.80633,0,0,1,1.7783,2.542m-2.999,1.0869a7.36561,7.36561,0,0,0-1.0459-2.5801,3.91306,3.91306,0,0,0-3.5556-1.8135,3.28257,3.28257,0,0,0-3.13819,1.917,10.61037,10.61037,0,0,0-.87211,4.499,7.24318,7.24318,0,0,0,.1753,1.6729Z" transform="translate(-0.05544 -0.05468)"/><path class="cls-1" d="M84.9014,14.23619l-0.1084.6953-10.9746,5.0752a16.14964,16.14964,0,0,0,1.0107,1.789,4.69344,4.69344,0,0,0,4.28621,2.2461A6.94951,6.94951,0,0,0,84.7959,21.077a2.751,2.751,0,0,1-.0341,1.9873,9.73511,9.73511,0,0,1-6.2413,2.7558,8.14647,8.14647,0,0,1-5.9961-2.2851,7.78961,7.78961,0,0,1-2.3007-5.7715,7.7878,7.7878,0,0,1,2.1611-5.6484A7.645,7.645,0,0,1,78.1016,9.744a6.79927,6.79927,0,0,1,5.0205,1.9502,24.06891,24.06891,0,0,1,1.7793,2.542m-2.999,1.0869a7.38458,7.38458,0,0,0-1.0449-2.5801,3.91657,3.91657,0,0,0-3.5577-1.8135,3.28331,3.28331,0,0,0-3.1377,1.917,10.59637,10.59637,0,0,0-.871,4.499,7.29761,7.29761,0,0,0,.1738,1.6729Z" transform="translate(-0.05544 -0.05468)"/><path class="cls-2" d="M43.67731,14.01449q0,4.67129.24409,10.2861,3.2424,0.1407,4.2881.1397a13.198,13.198,0,0,0,4.2876-.5235,3.1468,3.1468,0,0,0,1.605-1.3594l0.4184,0.1397a4.81222,4.81222,0,0,1-.3134,1.5517,10.34206,10.34206,0,0,1-.628,1.6211q-1.987-.2094-11.75-0.2099H40.6094l-0.209-.5225,0.232-4.7763q0.11715-2.4756.1157-6.3467c0-1.7207-.17479-4.5606-0.17479-4.5606l-0.10891-1.872,0.209-.5225h3.1367l0.209,0.5225q-0.04469.91695-.0825,1.832s-0.25929,3.0762-.25929,4.6006" transform="translate(-0.05544 -0.05468)"/><path class="cls-1" d="M102.0596,25.23619l-0.207.4873h-2.751l-0.2432-.4873v-1.5303a5.57033,5.57033,0,0,1-4.5673,2.1582,7.841,7.841,0,0,1-5.7266-2.3496,7.71268,7.71268,0,0,1-2.3711-5.6885,7.66151,7.66151,0,0,1,2.37691-5.6533A7.86679,7.86679,0,0,1,94.3135,9.824a6.40235,6.40235,0,0,1,4.7881,1.878c0-2.7832-.0801-2.4326-0.2432-6.585l0.2432-.4873h2.751l0.207,0.4873c-0.208,3.502-.3125,3.9639-0.3125,9.0205q0,5.00985.3125,11.0987m-2.958-9.5323q-0.96975-4.6977-5.5811-4.6972a3.56823,3.56823,0,0,0-2.9814,1.5996,6.74931,6.74931,0,0,0-1.1787,4.1064,7.43142,7.43142,0,0,0,.1035,1.2168,10.01949,10.01949,0,0,0,1.8272,4.959,4.18016,4.18016,0,0,0,6.07221,1.1133,4.35194,4.35194,0,0,0,1.63379-2.3477q0.0777-2.22795.1045-5.9502" transform="translate(-0.05544 -0.05468)"/><path class="cls-1" d="M116.0957,20.93629a4.4026,4.4026,0,0,1-1.8955,3.7315,6.57294,6.57294,0,0,1-4.1367,1.3262,8.40706,8.40706,0,0,1-4.207-1.0118q-0.561-.2079-2.1729-0.8369a9.94934,9.94934,0,0,1,.3496-3.1035,8.807,8.807,0,0,0,2.3516,2.7549,7.082,7.082,0,0,0,3.6523,1.1162,4.07609,4.07609,0,0,0,2.4219-.8369,2.56774,2.56774,0,0,0,1.3008-2.0928,2.71846,2.71846,0,0,0-1.1504-2.2666,7.50875,7.50875,0,0,0-2.9297-1.1504,23.01286,23.01286,0,0,1-3.3818-1.0117,4.091,4.091,0,0,1-2.336-2.4053,4.84213,4.84213,0,0,1-.2783-1.6035,3.57616,3.57616,0,0,1,.8721-2.1972,4.2684,4.2684,0,0,1,2.1602-1.4649,11.14289,11.14289,0,0,1,3.0332-.3135,18.24735,18.24735,0,0,1,3.2431.4873q1.2891,0.28125,2.57911.5245a16.94376,16.94376,0,0,1-.17381,3.8701,9.92567,9.92567,0,0,0-2.4756-2.7901,5.95721,5.95721,0,0,0-3.3828-.9765,4.18105,4.18105,0,0,0-1.9522.3486,2.41007,2.41007,0,0,0-1.499,2.0576,1.93613,1.93613,0,0,0,1.1162,1.6748,13.1139,13.1139,0,0,0,3.2598,1.2373,19.0667,19.0667,0,0,1,3.0166.9942,4.31364,4.31364,0,0,1,2.6152,3.9384" transform="translate(-0.05544 -0.05468)"/><path class="cls-3" d="M9.1885,19.04668a0.19132,0.19132,0,0,0-.2954-0.2422,6.09574,6.09574,0,0,1-1.5137,2.1943c-0.0092.0323-.5551,0.5235,0.105,0.0889a5.0666,5.0666,0,0,0,1.7041-2.041m0.8599-2.6211c-0.0449-.2725-0.2032-0.3135-0.3599-0.1357l-0.2832.8291c0.1519-.086.3711-0.1631,0.457,0.0195Zm-1.2671-2.5098c-0.1231-.2363-0.2822-0.205-0.375.0293l0.039,0.7373a0.22076,0.22076,0,0,1,.376-0.0175Zm1.4341,0.0049c-0.1109-.2422-0.271-0.2197-0.376.0098v0.7392a0.22113,0.22113,0,0,1,.376,0v-0.749Zm-2.354-2.0351c-0.462-.2481-0.4112.164-0.336,0.1767a1.05783,1.05783,0,0,1,.3609.5576c0.0488-.4589.5429-0.0703,0.5678-0.042a1.46026,1.46026,0,0,0-.5927-0.6923m1.686-.0938c-0.4492-.2724-0.4189.1426-0.3442,0.1592a1.20158,1.20158,0,0,1,.3403.6211c0.1338-.2861.4077-0.0117,0.4287,0.0195a1.114,1.114,0,0,0-.4248-0.7998m-2.3179,2.5733a6.19019,6.19019,0,0,0-1.1601-2.1993,0.7648,0.7648,0,0,0,.3188-0.206,0.06479,0.06479,0,0,0-.0571-0.0938l-0.7979-.3056v-0.1133a3.51378,3.51378,0,0,0,1.501.0566,0.57979,0.57979,0,0,0,.4751-0.5888c0.0318-.0703.0132-0.1075-0.0249-0.1143a0.1388,0.1388,0,0,1,.1509-0.0059,0.20879,0.20879,0,0,0,.0439.1954,0.84494,0.84494,0,0,0,.4532.4189l1.1518-.0703a1.61852,1.61852,0,0,1,1.438,1.666q0.624,2.12986-.6758,5.5889a16.36047,16.36047,0,0,0-.9321,1.9521c-0.2881.4649-.8179,1.1914-3.044,2.7285a0.21248,0.21248,0,0,0-.1381.0059l-0.4078.2168-0.333.4248-1.5253,3.9238-1.0787.3262,0.4707-3.2168-0.3837.1494-0.441,3.1582-0.4082.1582,0.6241-4.4326q4.84934-4.267,5.02-7.4844a3.74643,3.74643,0,0,0-.2398-2.1386" transform="translate(-0.05544 -0.05468)"/><path class="cls-4" d="M9.1885,19.04668a0.19132,0.19132,0,0,0-.2954-0.2422,6.09574,6.09574,0,0,1-1.5137,2.1943c-0.0092.0323-.5551,0.5235,0.105,0.0889A5.0666,5.0666,0,0,0,9.1885,19.04668Zm0.8599-2.6211c-0.0449-.2725-0.2032-0.3135-0.3599-0.1357l-0.2832.8291c0.1519-.086.3711-0.1631,0.457,0.0195Zm-1.2671-2.5098c-0.1231-.2363-0.2822-0.205-0.375.0293l0.039,0.7373a0.22076,0.22076,0,0,1,.376-0.0175Zm1.4341,0.0049c-0.1109-.2422-0.271-0.2197-0.376.0098v0.7392a0.22113,0.22113,0,0,1,.376,0v-0.749Zm-2.354-2.0351c-0.462-.2481-0.4112.164-0.336,0.1767a1.05783,1.05783,0,0,1,.3609.5576c0.0488-.4589.5429-0.0703,0.5678-0.042A1.46026,1.46026,0,0,0,7.8614,11.88559Zm1.686-.0938c-0.4492-.2724-0.4189.1426-0.3442,0.1592a1.20158,1.20158,0,0,1,.3403.6211c0.1338-.2861.4077-0.0117,0.4287,0.0195A1.114,1.114,0,0,0,9.5474,11.79179Zm-2.3179,2.5733a6.19019,6.19019,0,0,0-1.1601-2.1993,0.7648,0.7648,0,0,0,.3188-0.206,0.06479,0.06479,0,0,0-.0571-0.0938l-0.7979-.3056v-0.1133a3.51378,3.51378,0,0,0,1.501.0566,0.57979,0.57979,0,0,0,.4751-0.5888c0.0318-.0703.0132-0.1075-0.0249-0.1143a0.1388,0.1388,0,0,1,.1509-0.0059,0.20879,0.20879,0,0,0,.0439.1954,0.84494,0.84494,0,0,0,.4532.4189l1.1518-.0703a1.61852,1.61852,0,0,1,1.438,1.666q0.624,2.12986-.6758,5.5889a16.36047,16.36047,0,0,0-.9321,1.9521c-0.2881.4649-.8179,1.1914-3.044,2.7285a0.21248,0.21248,0,0,0-.1381.0059l-0.4078.2168-0.333.4248-1.5253,3.9238-1.0787.3262,0.4707-3.2168-0.3837.1494-0.441,3.1582-0.4082.1582,0.6241-4.4326q4.84934-4.267,5.02-7.4844A3.74643,3.74643,0,0,0,7.2295,14.36509Z" transform="translate(-0.05544 -0.05468)"/><path class="cls-3" d="M9.4292,6.98619c0.0869,0.0634.1753,0.1347,0.2632,0.2099a1.85071,1.85071,0,0,0-.102.5537,0.85146,0.85146,0,0,1-.5533.2862,1.56729,1.56729,0,0,0-1.4316,1.6669,0.07785,0.07785,0,0,1-.1484.004C7.0962,8.05349,5.9112,8.367,5.2735,8.11409a0.52154,0.52154,0,0,1-.2432-0.5205,0.34021,0.34021,0,0,0-.3188-0.3194,0.19541,0.19541,0,0,0-.0591.0049A3.68134,3.68134,0,0,1,5.0215,6.991l-0.001.0469H9.4292V6.98619Z" transform="translate(-0.05544 -0.05468)"/><path class="cls-4" d="M9.4292,6.98619c0.0869,0.0634.1753,0.1347,0.2632,0.2099a1.85071,1.85071,0,0,0-.102.5537,0.85146,0.85146,0,0,1-.5533.2862,1.56729,1.56729,0,0,0-1.4316,1.6669,0.07785,0.07785,0,0,1-.1484.004C7.0962,8.05349,5.9112,8.367,5.2735,8.11409a0.52154,0.52154,0,0,1-.2432-0.5205,0.34021,0.34021,0,0,0-.3188-0.3194,0.19541,0.19541,0,0,0-.0591.0049A3.68134,3.68134,0,0,1,5.0215,6.991l-0.001.0469H9.4292V6.98619Z" transform="translate(-0.05544 -0.05468)"/><path class="cls-3" d="M27.2945,19.04279a5.057,5.057,0,0,0,1.7036,2.0391c0.6611,0.4355.1142-.0567,0.1055-0.0889a6.069,6.069,0,0,1-1.5132-2.1934,0.19187,0.19187,0,0,0-.2959.2432m-0.8604-2.6221,0.1851,0.7129c0.0879-.1826.3071-0.1055,0.459-0.0195l-0.2837-.8281c-0.1573-.1788-0.315-0.1387-0.3604.1347m1.2671-2.5097-0.0391.749a0.21959,0.21959,0,0,1,.375.0185l0.0391-.7392c-0.0918-.2334-0.2519-0.2647-0.375-0.0283m-1.4341.0048v0.75a0.2195,0.2195,0,0,1,.376,0v-0.7392c-0.105-.2305-0.2646-0.252-0.376-0.0108m2.3531-2.0351a1.47868,1.47868,0,0,0-.5928.6924c0.0259-.0284.519-0.417,0.5688,0.042a1.06518,1.06518,0,0,1,.3599-0.5577c0.0762-.0127.1269-0.4248-0.3359-0.1767m-1.6861-.0928a1.1164,1.1164,0,0,0-.4238.7998c0.02-.0322.2949-0.3066,0.4292-0.0215a1.20227,1.20227,0,0,1,.3398-0.6201c0.0752-.0166.105-0.4307-0.3452-0.1582m1.9151-.9961a0.16046,0.16046,0,0,1,.1582.002c-0.044.0039-.0679,0.04-0.0352,0.1162a0.58191,0.58191,0,0,0,.4761.5888,3.51255,3.51255,0,0,0,1.501-.0556v0.1123l-0.7979.3057a0.06413,0.06413,0,0,0-.0571.0937,0.76632,0.76632,0,0,0,.3139.2041,6.38174,6.38174,0,0,0-1.0991,2.0977,3.63282,3.63282,0,0,0-.2959,2.2421q0.17145,3.2169,5.0191,7.4844l0.625,4.4336-0.4092-.1592-0.4409-3.1591L33.4244,24.95l0.4711,3.2168-1.0791-.3262-1.5239-3.9238L30.958,23.492l-0.4077-.2168a0.28023,0.28023,0,0,0-.0991-0.0137,12.47673,12.47673,0,0,1-3.1738-2.9521c-0.1612-.3926-0.4253-0.9482-0.8408-1.7207q-1.29644-3.46439-.6763-5.5889a1.62069,1.62069,0,0,1,1.438-1.667l1.1518,0.0713a0.84133,0.84133,0,0,0,.4532-0.4189,0.219,0.219,0,0,0,.0459-0.1934" transform="translate(-0.05544 -0.05468)"/><path class="cls-4" d="M27.2945,19.04279a5.057,5.057,0,0,0,1.7036,2.0391c0.6611,0.4355.1142-.0567,0.1055-0.0889a6.069,6.069,0,0,1-1.5132-2.1934A0.19187,0.19187,0,0,0,27.2945,19.04279Zm-0.8604-2.6221,0.1851,0.7129c0.0879-.1826.3071-0.1055,0.459-0.0195l-0.2837-.8281C26.6372,16.10719,26.4795,16.14729,26.4341,16.42068Zm1.2671-2.5097-0.0391.749a0.21959,0.21959,0,0,1,.375.0185l0.0391-.7392C27.9844,13.70589,27.82431,13.67459,27.7012,13.911Zm-1.4341.0048v0.75a0.2195,0.2195,0,0,1,.376,0v-0.7392C26.5381,13.69609,26.3785,13.67459,26.2671,13.91579Zm2.3531-2.0351a1.47868,1.47868,0,0,0-.5928.6924c0.0259-.0284.519-0.417,0.5688,0.042a1.06518,1.06518,0,0,1,.3599-0.5577C29.03231,12.04468,29.083,11.63259,28.6202,11.88068Zm-1.6861-.0928a1.1164,1.1164,0,0,0-.4238.7998c0.02-.0322.2949-0.3066,0.4292-0.0215a1.20227,1.20227,0,0,1,.3398-0.6201C27.3545,11.92949,27.38431,11.51539,26.9341,11.78789Zm1.9151-.9961a0.16046,0.16046,0,0,1,.1582.002c-0.044.0039-.0679,0.04-0.0352,0.1162a0.58191,0.58191,0,0,0,.4761.5888,3.51255,3.51255,0,0,0,1.501-.0556v0.1123l-0.7979.3057a0.06413,0.06413,0,0,0-.0571.0937,0.76632,0.76632,0,0,0,.3139.2041,6.38174,6.38174,0,0,0-1.0991,2.0977,3.63282,3.63282,0,0,0-.2959,2.2421q0.17145,3.2169,5.0191,7.4844l0.625,4.4336-0.4092-.1592-0.4409-3.1591L33.4244,24.95l0.4711,3.2168-1.0791-.3262-1.5239-3.9238L30.958,23.492l-0.4077-.2168a0.28023,0.28023,0,0,0-.0991-0.0137,12.47673,12.47673,0,0,1-3.1738-2.9521c-0.1612-.3926-0.4253-0.9482-0.8408-1.7207q-1.29644-3.46439-.6763-5.5889a1.62069,1.62069,0,0,1,1.438-1.667l1.1518,0.0713a0.84133,0.84133,0,0,0,.4532-0.4189A0.219,0.219,0,0,0,28.8492,10.79179Z" transform="translate(-0.05544 -0.05468)"/><path class="cls-3" d="M31.4624,7.033a3.72475,3.72475,0,0,1,.3067.2364,0.33958,0.33958,0,0,0-.3159.3193,0.52145,0.52145,0,0,1-.2452.5195c-0.6367.2539-1.8217-.0586-2.1836,1.5938a0.077,0.077,0,0,1-.1469-0.0039,1.57009,1.57009,0,0,0-1.4331-1.667,0.84915,0.84915,0,0,1-.5523-0.2862,2.27817,2.27817,0,0,0-.0888-0.5302l0.0092-.0186c0.0796-.0683.1607-0.1338,0.2408-0.1943V7.033h4.4091Z" transform="translate(-0.05544 -0.05468)"/><path class="cls-4" d="M31.4624,7.033a3.72475,3.72475,0,0,1,.3067.2364,0.33958,0.33958,0,0,0-.3159.3193,0.52145,0.52145,0,0,1-.2452.5195c-0.6367.2539-1.8217-.0586-2.1836,1.5938a0.077,0.077,0,0,1-.1469-0.0039,1.57009,1.57009,0,0,0-1.4331-1.667,0.84915,0.84915,0,0,1-.5523-0.2862,2.27817,2.27817,0,0,0-.0888-0.5302l0.0092-.0186c0.0796-.0683.1607-0.1338,0.2408-0.1943V7.033h4.4091Z" transform="translate(-0.05544 -0.05468)"/><path class="cls-5" d="M6.0694,12.16579a6.19019,6.19019,0,0,1,1.1601,2.1993,0.91339,0.91339,0,0,0-.539-0.5245c-0.1524-.0283-0.2134.0118-0.1831,0.1172a3.75342,3.75342,0,0,1,.414,2.545c-0.2529,2.413-2.084,4.9775-5.5571,7.7343a4.57562,4.57562,0,0,0,.4819-1.5009,14.86232,14.86232,0,0,0,2.5171-2.4864l-0.2348-.4873a11.885,11.885,0,0,1-2.3594,1.8838c0.0132-.0605.0024-0.1728,0.018-0.2275a19.02045,19.02045,0,0,0,2.1421-2.1514l-0.2207-.5996a15.01428,15.01428,0,0,1-1.6723,1.4268l0.0322-.3038a12.12027,12.12027,0,0,0,1.5088-1.6513l-0.1919-.7823-1.061,1.0821,0.0293-.4444c0.3085-.3916.5668-0.7636,0.9736-1.3281l-0.1319-1.001-0.5678.8418a1.25526,1.25526,0,0,1,.1958-0.6699,10.85509,10.85509,0,0,1,2.3769-2.9658c0.0152-.126-0.0947-0.208-0.2749-0.208a0.63806,0.63806,0,0,1-.2861,0c-0.1289-.1758-0.0791-0.3486.1519-0.5147a0.65738,0.65738,0,0,1,.6474.0967,1.77844,1.77844,0,0,0,.6309-0.0801" transform="translate(-0.05544 -0.05468)"/><path class="cls-6" d="M6.0694,12.16579a6.19019,6.19019,0,0,1,1.1601,2.1993,0.91339,0.91339,0,0,0-.539-0.5245c-0.1524-.0283-0.2134.0118-0.1831,0.1172a3.75342,3.75342,0,0,1,.414,2.545c-0.2529,2.413-2.084,4.9775-5.5571,7.7343a4.57562,4.57562,0,0,0,.4819-1.5009,14.86232,14.86232,0,0,0,2.5171-2.4864l-0.2348-.4873a11.885,11.885,0,0,1-2.3594,1.8838c0.0132-.0605.0024-0.1728,0.018-0.2275a19.02045,19.02045,0,0,0,2.1421-2.1514l-0.2207-.5996a15.01428,15.01428,0,0,1-1.6723,1.4268l0.0322-.3038a12.12027,12.12027,0,0,0,1.5088-1.6513l-0.1919-.7823-1.061,1.0821,0.0293-.4444c0.3085-.3916.5668-0.7636,0.9736-1.3281l-0.1319-1.001-0.5678.8418a1.25526,1.25526,0,0,1,.1958-0.6699,10.85509,10.85509,0,0,1,2.3769-2.9658c0.0152-.126-0.0947-0.208-0.2749-0.208a0.63806,0.63806,0,0,1-.2861,0c-0.1289-.1758-0.0791-0.3486.1519-0.5147a0.65738,0.65738,0,0,1,.6474.0967A1.77844,1.77844,0,0,0,6.0694,12.16579Z" transform="translate(-0.05544 -0.05468)"/><path class="cls-5" d="M6.07031,23.27419c2.2261-1.5371,2.7559-2.2636,3.044-2.7285a2.03407,2.03407,0,0,0-.1411.5176l-0.0757,1.5205a1.32157,1.32157,0,0,1-.5571,1.1856,1.57607,1.57607,0,0,0-.8003.8935,2.05392,2.05392,0,0,1-.9907,1.2988,1.50052,1.50052,0,0,1-1.375.043,0.58054,0.58054,0,0,1-.0503-0.6504l0.4502-1.1582a2.20074,2.20074,0,0,1,.5419-0.7158,0.13788,0.13788,0,0,0-.0459-0.2061" transform="translate(-0.05544 -0.05468)"/><path class="cls-6" d="M6.07031,23.27419c2.2261-1.5371,2.7559-2.2636,3.044-2.7285a2.03407,2.03407,0,0,0-.1411.5176l-0.0757,1.5205a1.32157,1.32157,0,0,1-.5571,1.1856,1.57607,1.57607,0,0,0-.8003.8935,2.05392,2.05392,0,0,1-.9907,1.2988,1.50052,1.50052,0,0,1-1.375.043,0.58054,0.58054,0,0,1-.0503-0.6504l0.4502-1.1582a2.20074,2.20074,0,0,1,.5419-0.7158A0.13788,0.13788,0,0,0,6.07031,23.27419Z" transform="translate(-0.05544 -0.05468)"/><path class="cls-3" d="M16.2784,8.199a2.99974,2.99974,0,0,0,1.1489,1.1075c0.0888,0.0459.0752-.0323,0.0718-0.0498a3.3886,3.3886,0,0,1-1.022-1.1885,0.12081,0.12081,0,0,0-.1987.1308m-0.5542-1.4238,0.1259,0.3877a0.243,0.243,0,0,1,.3091-0.0107l-0.1919-.4493c-0.105-.0976-0.2119-0.0751-0.2431.0723M15.6294,5.409v0.4053a0.17407,0.17407,0,0,1,.2539,0V5.41489c-0.0708-.125-0.1782-0.1368-0.2539-0.0059m-0.1142-.9111c0.0342-.045.0713-0.0889,0.1113-0.1338l0.0259-.0293a0.71525,0.71525,0,0,1,.5259-0.2569,2.8691,2.8691,0,0,0,.4628.0303,0.83874,0.83874,0,0,0,.4341-0.2158,0.33494,0.33494,0,0,0,.0581-0.1904,0.12247,0.12247,0,0,1,.1548-0.0137c-0.0488.0117-.0888,0.042-0.0469,0.1025a1.50566,1.50566,0,0,0,.2691.2754,3.9034,3.9034,0,0,0,1.2939-.0322,0.67584,0.67584,0,0,1-.5639.291c-0.0928.0196-.1031,0.0615-0.0308,0.0928a1.5373,1.5373,0,0,0,.312.1006,3.97354,3.97354,0,0,0-.4599.5303,3.207,3.207,0,0,0-.2124.3242,0.28263,0.28263,0,0,0-.1441.0957,1.30167,1.30167,0,0,0-.311.9912,2.98142,2.98142,0,0,0,.5371,1.8545,9.634,9.634,0,0,0,2.751,2.5566c0.0322,0.0195.288,1.7793,0.372,2.1055l-0.2309-.0713s-0.499-1.5996-.5298-1.5996a0.48012,0.48012,0,0,0-.2944,0c-0.0098.0605,0.5693,1.5527,0.5273,1.5635a2.72866,2.72866,0,0,1-.6982-0.2149,18.63549,18.63549,0,0,0-1-2.0508,1.05674,1.05674,0,0,0-.5357-0.125,0.07128,0.07128,0,0,0-.0181.0469,3.67944,3.67944,0,0,1-1.8403-1.3945l0.0073,0.0234c-0.02-.041-0.0439-0.0888-0.0771-0.1494-0.124-.2373-0.3711-0.5449-0.5571-0.9062s-0.4019-1.0206-.5039-1.2901a2.49928,2.49928,0,0,1-.1451-1.3711,2.59282,2.59282,0,0,1,.357-0.9394" transform="translate(-0.05544 -0.05468)"/><path class="cls-4" d="M16.2784,8.199a2.99974,2.99974,0,0,0,1.1489,1.1075c0.0888,0.0459.0752-.0323,0.0718-0.0498a3.3886,3.3886,0,0,1-1.022-1.1885A0.12081,0.12081,0,0,0,16.2784,8.199Zm-0.5542-1.4238,0.1259,0.3877a0.243,0.243,0,0,1,.3091-0.0107l-0.1919-.4493C15.86231,6.60529,15.7554,6.62779,15.7242,6.77519ZM15.6294,5.409v0.4053a0.17407,0.17407,0,0,1,.2539,0V5.41489C15.8125,5.28989,15.7051,5.27809,15.6294,5.409Zm-0.1142-.9111c0.0342-.045.0713-0.0889,0.1113-0.1338l0.0259-.0293a0.71525,0.71525,0,0,1,.5259-0.2569,2.8691,2.8691,0,0,0,.4628.0303,0.83874,0.83874,0,0,0,.4341-0.2158,0.33494,0.33494,0,0,0,.0581-0.1904,0.12247,0.12247,0,0,1,.1548-0.0137c-0.0488.0117-.0888,0.042-0.0469,0.1025a1.50566,1.50566,0,0,0,.2691.2754,3.9034,3.9034,0,0,0,1.2939-.0322,0.67584,0.67584,0,0,1-.5639.291c-0.0928.0196-.1031,0.0615-0.0308,0.0928a1.5373,1.5373,0,0,0,.312.1006,3.97354,3.97354,0,0,0-.4599.5303,3.207,3.207,0,0,0-.2124.3242,0.28263,0.28263,0,0,0-.1441.0957,1.30167,1.30167,0,0,0-.311.9912,2.98142,2.98142,0,0,0,.5371,1.8545,9.634,9.634,0,0,0,2.751,2.5566c0.0322,0.0195.288,1.7793,0.372,2.1055l-0.2309-.0713s-0.499-1.5996-.5298-1.5996a0.48012,0.48012,0,0,0-.2944,0c-0.0098.0605,0.5693,1.5527,0.5273,1.5635a2.72866,2.72866,0,0,1-.6982-0.2149,18.63549,18.63549,0,0,0-1-2.0508,1.05674,1.05674,0,0,0-.5357-0.125,0.07128,0.07128,0,0,0-.0181.0469,3.67944,3.67944,0,0,1-1.8403-1.3945l0.0073,0.0234c-0.02-.041-0.0439-0.0888-0.0771-0.1494-0.124-.2373-0.3711-0.5449-0.5571-0.9062s-0.4019-1.0206-.5039-1.2901a2.49928,2.49928,0,0,1-.1451-1.3711A2.59282,2.59282,0,0,1,15.5152,4.49789Z" transform="translate(-0.05544 -0.05468)"/><path class="cls-5" d="M29.3091,14.25668a6.38174,6.38174,0,0,1,1.0991-2.0977,1.77877,1.77877,0,0,0,.6363.082,0.64924,0.64924,0,0,1,.646-0.0957c0.2319,0.166.2817,0.3369,0.1528,0.5137a0.63792,0.63792,0,0,1-.2861,0c-0.1787,0-.2901.082-0.2759,0.208a10.8288,10.8288,0,0,1,2.3779,2.9658,1.26461,1.26461,0,0,1,.1973.6709l-0.5694-.8418-0.1308,1c0.4062,0.5645.664,0.9366,0.9731,1.3282l0.0279,0.4443-1.0601-1.082-0.1919.7832a12.25125,12.25125,0,0,0,1.5088,1.6504l0.0322,0.3037a14.91494,14.91494,0,0,1-1.6719-1.4258l-0.2202.5986a19.1471,19.1471,0,0,0,2.1402,2.1514c0.0171,0.0537.0058,0.167,0.02,0.2275a11.84335,11.84335,0,0,1-2.3599-1.8838l-0.2353.4873a14.79421,14.79421,0,0,0,2.5171,2.4854,4.53476,4.53476,0,0,0,.4819,1.501c-3.4727-2.7559-5.3027-5.3203-5.5557-7.7344a3.74153,3.74153,0,0,1,.4126-2.544c0.0303-.1054-0.0317-0.1455-0.1826-0.1171a0.83868,0.83868,0,0,0-.4834.4209" transform="translate(-0.05544 -0.05468)"/><path class="cls-6" d="M29.3091,14.25668a6.38174,6.38174,0,0,1,1.0991-2.0977,1.77877,1.77877,0,0,0,.6363.082,0.64924,0.64924,0,0,1,.646-0.0957c0.2319,0.166.2817,0.3369,0.1528,0.5137a0.63792,0.63792,0,0,1-.2861,0c-0.1787,0-.2901.082-0.2759,0.208a10.8288,10.8288,0,0,1,2.3779,2.9658,1.26461,1.26461,0,0,1,.1973.6709l-0.5694-.8418-0.1308,1c0.4062,0.5645.664,0.9366,0.9731,1.3282l0.0279,0.4443-1.0601-1.082-0.1919.7832a12.25125,12.25125,0,0,0,1.5088,1.6504l0.0322,0.3037a14.91494,14.91494,0,0,1-1.6719-1.4258l-0.2202.5986a19.1471,19.1471,0,0,0,2.1402,2.1514c0.0171,0.0537.0058,0.167,0.02,0.2275a11.84335,11.84335,0,0,1-2.3599-1.8838l-0.2353.4873a14.79421,14.79421,0,0,0,2.5171,2.4854,4.53476,4.53476,0,0,0,.4819,1.501c-3.4727-2.7559-5.3027-5.3203-5.5557-7.7344a3.74153,3.74153,0,0,1,.4126-2.544c0.0303-.1054-0.0317-0.1455-0.1826-0.1171A0.83868,0.83868,0,0,0,29.3091,14.25668Z" transform="translate(-0.05544 -0.05468)"/><path class="cls-5" d="M27.2774,20.30939a12.47673,12.47673,0,0,0,3.1738,2.9521c-0.1079.0088-.1357,0.1084-0.084,0.2139a2.20292,2.20292,0,0,1,.541.7149l0.4502,1.1591a0.58027,0.58027,0,0,1-.0503.6504,1.504,1.504,0,0,1-1.374-.042,2.054,2.054,0,0,1-.9917-1.2998,1.57954,1.57954,0,0,0-.8003-0.8935,1.32056,1.32056,0,0,1-.5566-1.1856l-0.0762-1.5205a2.74753,2.74753,0,0,0-.2319-0.749" transform="translate(-0.05544 -0.05468)"/><path class="cls-6" d="M27.2774,20.30939a12.47673,12.47673,0,0,0,3.1738,2.9521c-0.1079.0088-.1357,0.1084-0.084,0.2139a2.20292,2.20292,0,0,1,.541.7149l0.4502,1.1591a0.58027,0.58027,0,0,1-.0503.6504,1.504,1.504,0,0,1-1.374-.042,2.054,2.054,0,0,1-.9917-1.2998,1.57954,1.57954,0,0,0-.8003-0.8935,1.32056,1.32056,0,0,1-.5566-1.1856l-0.0762-1.5205A2.74753,2.74753,0,0,0,27.2774,20.30939Z" transform="translate(-0.05544 -0.05468)"/><path class="cls-7" d="M4.7105,1.74689a0.92676,0.92676,0,0,0-1.002.3398A1.03523,1.03523,0,0,0,5.03031,3.199a0.83114,0.83114,0,0,1,.6738-0.3457c0.105,0.1211.001,0.2676-.1899,0.4395a0.52381,0.52381,0,0,0-.1138.4004,1.66517,1.66517,0,0,0,1.8907-1.4746,2.04144,2.04144,0,0,1,.894-0.7979,9.83855,9.83855,0,0,1-1.853-.0664A1.24615,1.24615,0,0,0,5.6314.94319a3.08622,3.08622,0,0,0-.8042.1347A1.56577,1.56577,0,0,1,4.1744.93729a1.36481,1.36481,0,0,0,.5361.8096" transform="translate(-0.05544 -0.05468)"/><path class="cls-8" d="M4.7105,1.74689a0.92676,0.92676,0,0,0-1.002.3398A1.03523,1.03523,0,0,0,5.03031,3.199a0.83114,0.83114,0,0,1,.6738-0.3457c0.105,0.1211.001,0.2676-.1899,0.4395a0.52381,0.52381,0,0,0-.1138.4004,1.66517,1.66517,0,0,0,1.8907-1.4746,2.04144,2.04144,0,0,1,.894-0.7979,9.83855,9.83855,0,0,1-1.853-.0664A1.24615,1.24615,0,0,0,5.6314.94319a3.08622,3.08622,0,0,0-.8042.1347A1.56577,1.56577,0,0,1,4.1744.93729,1.36481,1.36481,0,0,0,4.7105,1.74689Z" transform="translate(-0.05544 -0.05468)"/><path class="cls-7" d="M14.3145,5.22829a0.783,0.783,0,0,0,.4648.4034,2.35517,2.35517,0,0,0,.0269.5644,1.4052,1.4052,0,0,1-.8228-0.2842,15.61532,15.61532,0,0,0-1.3232-1.7295l-0.2451-.0878a4.70626,4.70626,0,0,1-.8589-0.5264,1.486,1.486,0,0,1-.1499.5264,8.72443,8.72443,0,0,0-.2949-1.4922,2.276,2.276,0,0,0-.2701-0.3008c0.521,0.042.7632-.0449,0.816-0.2197a0.79574,0.79574,0,0,1,.3818-0.6582,2.39134,2.39134,0,0,1,.752.872,1.7184,1.7184,0,0,1,.0722.7158c0.0259-.0371.0698-0.0488,0.0928-0.081a2.32712,2.32712,0,0,1,.3452-0.4815,0.92922,0.92922,0,0,1,.104-0.2363,2.84339,2.84339,0,0,0,.165.2686,1.60654,1.60654,0,0,1,.376,1.208,3.95941,3.95941,0,0,0,.3682,1.539" transform="translate(-0.05544 -0.05468)"/><path class="cls-8" d="M14.3145,5.22829a0.783,0.783,0,0,0,.4648.4034,2.35517,2.35517,0,0,0,.0269.5644,1.4052,1.4052,0,0,1-.8228-0.2842,15.61532,15.61532,0,0,0-1.3232-1.7295l-0.2451-.0878a4.70626,4.70626,0,0,1-.8589-0.5264,1.486,1.486,0,0,1-.1499.5264,8.72443,8.72443,0,0,0-.2949-1.4922,2.276,2.276,0,0,0-.2701-0.3008c0.521,0.042.7632-.0449,0.816-0.2197a0.79574,0.79574,0,0,1,.3818-0.6582,2.39134,2.39134,0,0,1,.752.872,1.7184,1.7184,0,0,1,.0722.7158c0.0259-.0371.0698-0.0488,0.0928-0.081a2.32712,2.32712,0,0,1,.3452-0.4815,0.92922,0.92922,0,0,1,.104-0.2363,2.84339,2.84339,0,0,0,.165.2686,1.60654,1.60654,0,0,1,.376,1.208A3.95941,3.95941,0,0,0,14.3145,5.22829Z" transform="translate(-0.05544 -0.05468)"/><path class="cls-7" d="M15.2525,7.71079a0.732,0.732,0,0,1-.3843.3222,0.6144,0.6144,0,0,1-.4497.0352,0.78678,0.78678,0,0,1-.3794-0.208,1.6239,1.6239,0,0,1,.8433-0.8926,0.45163,0.45163,0,0,1,.1069-0.043c0.0869,0.2969.1802,0.5733,0.2632,0.7862" transform="translate(-0.05544 -0.05468)"/><path class="cls-8" d="M15.2525,7.71079a0.732,0.732,0,0,1-.3843.3222,0.6144,0.6144,0,0,1-.4497.0352,0.78678,0.78678,0,0,1-.3794-0.208,1.6239,1.6239,0,0,1,.8433-0.8926,0.45163,0.45163,0,0,1,.1069-0.043C15.0762,7.22149,15.1695,7.49789,15.2525,7.71079Z" transform="translate(-0.05544 -0.05468)"/><path class="cls-7" d="M31.65431,1.77329a0.92517,0.92517,0,0,1,1.002.3398,1.03349,1.03349,0,0,1-1.3208,1.1113,0.83584,0.83584,0,0,0-.6753-0.3447c-0.104.1221-.001,0.2676,0.1909,0.4404a0.519,0.519,0,0,1,.1143.3995,1.66567,1.66567,0,0,1-1.8911-1.4747,2.03458,2.03458,0,0,0-.8941-0.7968,9.6388,9.6388,0,0,0,1.853-.0674,1.25032,1.25032,0,0,1,.7012-0.4111,3.07545,3.07545,0,0,1,.8037.1347,1.59772,1.59772,0,0,0,.6524-0.1406,1.35782,1.35782,0,0,1-.5362.8096" transform="translate(-0.05544 -0.05468)"/><path class="cls-8" d="M31.65431,1.77329a0.92517,0.92517,0,0,1,1.002.3398,1.03349,1.03349,0,0,1-1.3208,1.1113,0.83584,0.83584,0,0,0-.6753-0.3447c-0.104.1221-.001,0.2676,0.1909,0.4404a0.519,0.519,0,0,1,.1143.3995,1.66567,1.66567,0,0,1-1.8911-1.4747,2.03458,2.03458,0,0,0-.8941-0.7968,9.6388,9.6388,0,0,0,1.853-.0674,1.25032,1.25032,0,0,1,.7012-0.4111,3.07545,3.07545,0,0,1,.8037.1347,1.59772,1.59772,0,0,0,.6524-0.1406A1.35782,1.35782,0,0,1,31.65431,1.77329Z" transform="translate(-0.05544 -0.05468)"/><path class="cls-7" d="M24.3252,1.45a0.78847,0.78847,0,0,1,.3828.6582c0.0533,0.1748.2955,0.2617,0.8155,0.2207a2.16518,2.16518,0,0,0-.2691.2998,8.61239,8.61239,0,0,0-.2949,1.4922,1.47171,1.47171,0,0,1-.1514-0.5263,4.69048,4.69048,0,0,1-.8579.5263l-0.2441.0879c-0.4209.377-.792,1.0733-1.354,1.7188a1.43013,1.43013,0,0,1-1.0357.2578A3.44525,3.44525,0,0,1,20.708,6.077c0.0113,0.0078.6934-.2813,0.6934-0.2813a1.80209,1.80209,0,0,0,.6489-0.54,3.98331,3.98331,0,0,0,.3692-1.5479,1.60479,1.60479,0,0,1,.3759-1.2002,2.81153,2.81153,0,0,0,.1641-0.2675,0.9172,0.9172,0,0,1,.104.2343,2.30976,2.30976,0,0,1,.3447.4825c0.024,0.0322.0679,0.0439,0.0933,0.082a1.74443,1.74443,0,0,1,.0728-0.7168A2.3981,2.3981,0,0,1,24.3252,1.45" transform="translate(-0.05544 -0.05468)"/><path class="cls-8" d="M24.3252,1.45a0.78847,0.78847,0,0,1,.3828.6582c0.0533,0.1748.2955,0.2617,0.8155,0.2207a2.16518,2.16518,0,0,0-.2691.2998,8.61239,8.61239,0,0,0-.2949,1.4922,1.47171,1.47171,0,0,1-.1514-0.5263,4.69048,4.69048,0,0,1-.8579.5263l-0.2441.0879c-0.4209.377-.792,1.0733-1.354,1.7188a1.43013,1.43013,0,0,1-1.0357.2578A3.44525,3.44525,0,0,1,20.708,6.077c0.0113,0.0078.6934-.2813,0.6934-0.2813a1.80209,1.80209,0,0,0,.6489-0.54,3.98331,3.98331,0,0,0,.3692-1.5479,1.60479,1.60479,0,0,1,.3759-1.2002,2.81153,2.81153,0,0,0,.1641-0.2675,0.9172,0.9172,0,0,1,.104.2343,2.30976,2.30976,0,0,1,.3447.4825c0.024,0.0322.0679,0.0439,0.0933,0.082a1.74443,1.74443,0,0,1,.0728-0.7168A2.3981,2.3981,0,0,1,24.3252,1.45Z" transform="translate(-0.05544 -0.05468)"/><path class="cls-7" d="M20.7691,6.80739a0.87659,0.87659,0,0,1,.6372.1114,1.52406,1.52406,0,0,1,.8442.8906,0.7638,0.7638,0,0,1-.3803.207,0.80237,0.80237,0,0,1-.521-0.0361,0.75415,0.75415,0,0,1-.4048-0.3066c-0.0689-.4043-0.1289-0.7256-0.168-0.8477Z" transform="translate(-0.05544 -0.05468)"/><path class="cls-8" d="M20.7691,6.80739a0.87659,0.87659,0,0,1,.6372.1114,1.52406,1.52406,0,0,1,.8442.8906,0.7638,0.7638,0,0,1-.3803.207,0.80237,0.80237,0,0,1-.521-0.0361,0.75415,0.75415,0,0,1-.4048-0.3066c-0.0689-.4043-0.1289-0.7256-0.168-0.8477Z" transform="translate(-0.05544 -0.05468)"/><path class="cls-5" d="M17.8492,5.37289a3.77032,3.77032,0,0,1,.6821-0.8526,0.57355,0.57355,0,0,0,.2451,0,0.52042,0.52042,0,0,1,.4121-0.0498,0.29926,0.29926,0,0,1,.1968.2149c-0.0112.082-.042,0.1133-0.1558,0.1133-0.1133,0-.2573-0.0098-0.247.0507a0.23154,0.23154,0,0,0,.1538.1465,5.19323,5.19323,0,0,1,1.4541,1.6797c0.0717,0.1631.0517,0.1543,0.0517,0.1543a1.37046,1.37046,0,0,0-.3618-0.3701,0.98369,0.98369,0,0,0-.0708.4736,6.01247,6.01247,0,0,1,.6187.7637,0.76314,0.76314,0,0,1,.04.2148s-0.7207-.6386-0.731-0.6181a1.00807,1.00807,0,0,0-.0927.4033c0.041,0.0498.916,0.834,0.9267,0.8955,0.0103,0.0615.0733,0.1865,0.02,0.1641-0.0507-.0186-1.0498-0.752-1.0918-0.7422a0.45308,0.45308,0,0,0-.1342.2802c0.021,0.0499,1.2993,1.0186,1.3203,1.0821,0.02,0.0605.0576,0.1103,0.02,0.1133a15.9887,15.9887,0,0,0-1.5332-.8868c-0.147.0664-.126,0.1866-0.0542,0.2989,0.0723,0.1123,1.5151,1.2256,1.5571,1.3076,0.041,0.083.2471,0.6191,0.2784,0.6514,0.3286,0.3271-3.7305-2.3204-3.5762-4.3516a1.49573,1.49573,0,0,1,.2768-0.9375,0.15609,0.15609,0,0,0,.0103-0.2061,0.37723,0.37723,0,0,0-.2153.0069" transform="translate(-0.05544 -0.05468)"/><path class="cls-9" d="M17.8492,5.37289a3.77032,3.77032,0,0,1,.6821-0.8526,0.57355,0.57355,0,0,0,.2451,0,0.52042,0.52042,0,0,1,.4121-0.0498,0.29926,0.29926,0,0,1,.1968.2149c-0.0112.082-.042,0.1133-0.1558,0.1133-0.1133,0-.2573-0.0098-0.247.0507a0.23154,0.23154,0,0,0,.1538.1465,5.19323,5.19323,0,0,1,1.4541,1.6797c0.0717,0.1631.0517,0.1543,0.0517,0.1543a1.37046,1.37046,0,0,0-.3618-0.3701,0.98369,0.98369,0,0,0-.0708.4736,6.01247,6.01247,0,0,1,.6187.7637,0.76314,0.76314,0,0,1,.04.2148s-0.7207-.6386-0.731-0.6181a1.00807,1.00807,0,0,0-.0927.4033c0.041,0.0498.916,0.834,0.9267,0.8955,0.0103,0.0615.0733,0.1865,0.02,0.1641-0.0507-.0186-1.0498-0.752-1.0918-0.7422a0.45308,0.45308,0,0,0-.1342.2802c0.021,0.0499,1.2993,1.0186,1.3203,1.0821,0.02,0.0605.0576,0.1103,0.02,0.1133a15.9887,15.9887,0,0,0-1.5332-.8868c-0.147.0664-.126,0.1866-0.0542,0.2989,0.0723,0.1123,1.5151,1.2256,1.5571,1.3076,0.041,0.083.2471,0.6191,0.2784,0.6514,0.3286,0.3271-3.7305-2.3204-3.5762-4.3516a1.49573,1.49573,0,0,1,.2768-0.9375,0.15609,0.15609,0,0,0,.0103-0.2061A0.37723,0.37723,0,0,0,17.8492,5.37289Z" transform="translate(-0.05544 -0.05468)"/><path class="cls-5" d="M16.6861,9.994q-0.07185-.22125-0.1397-0.4551a1.28478,1.28478,0,0,0-.105-0.3848l-0.0073-.0234a3.67944,3.67944,0,0,0,1.8403,1.3945,0.31385,0.31385,0,0,0,.0181.1094,0.32286,0.32286,0,0,1,.1846.1318,6.50161,6.50161,0,0,1,.5972,1.1455,0.67993,0.67993,0,0,1-.5772.1328,1.15208,1.15208,0,0,1-.958-0.5039,11.22754,11.22754,0,0,1-.853-1.5468" transform="translate(-0.05544 -0.05468)"/><path class="cls-6" d="M16.6861,9.994q-0.07185-.22125-0.1397-0.4551a1.28478,1.28478,0,0,0-.105-0.3848l-0.0073-.0234a3.67944,3.67944,0,0,0,1.8403,1.3945,0.31385,0.31385,0,0,0,.0181.1094,0.32286,0.32286,0,0,1,.1846.1318,6.50161,6.50161,0,0,1,.5972,1.1455,0.67993,0.67993,0,0,1-.5772.1328,1.15208,1.15208,0,0,1-.958-0.5039A11.22754,11.22754,0,0,1,16.6861,9.994Z" transform="translate(-0.05544 -0.05468)"/><path class="cls-1" d="M15.6182,1.33479a0.1952,0.1952,0,0,0,.0669.1806,1.20848,1.20848,0,0,0,.3091.1456c0.1421,0.0586.2993,0.1328,0.4262,0.1855a0.67021,0.67021,0,0,1,.3399.1426,0.93274,0.93274,0,0,1,.1938.3545c0.0371,0.1054.0371,0.2158,0.0894,0.3574a0.31443,0.31443,0,0,0,.0967.2353,0.12341,0.12341,0,0,0,.1679-0.0292,0.7421,0.7421,0,0,0,.0904-0.2881,0.84343,0.84343,0,0,1,.1709-0.376,1.05192,1.05192,0,0,1,.601-0.3359,5.047,5.047,0,0,0,.5259-0.0674,0.40515,0.40515,0,0,0,.3399-0.1787,0.19044,0.19044,0,0,0-.1158-0.2735,6.00888,6.00888,0,0,0-1.664-.2754c-0.7051.0215-1.3833,0.1524-1.459,0.1485a0.19829,0.19829,0,0,0-.1792.0742m2.1523,1.1543a0.2444,0.2444,0,1,0,.2447-0.2442,0.24405,0.24405,0,0,0-.2447.2442m-1.582-.1084a0.2444,0.2444,0,1,0,.2446-0.2451,0.24553,0.24553,0,0,0-.2446.2451m-1.6753-1.4893s2.124-.2685,2.5982-0.2754a11.98807,11.98807,0,0,1,1.7558.2305c0.377,0.0674,1.1133.0234,1.1582,0.0606a0.13351,0.13351,0,0,1,.0147.2265,2.13329,2.13329,0,0,0-.5869.4707,0.2688,0.2688,0,0,1-.044.25c-0.0747.0528-.146,0-0.3808,0.1113a1.04167,1.04167,0,0,0-.4439.3096,0.19718,0.19718,0,0,0-.0522.1797,0.36354,0.36354,0,0,1,.06.2236c-0.0522.045-.0898,0.0069-0.1352,0.0518a0.57153,0.57153,0,0,1-.376.1914,0.70736,0.70736,0,0,0-.3247.0146,0.75994,0.75994,0,0,0-.5152.4854c-0.038.1084-.0561,0.1299-0.101,0.0928a1.35638,1.35638,0,0,1-.104-0.2198,0.80265,0.80265,0,0,0-.3741-0.4443,1.74379,1.74379,0,0,1-.5996-0.1269c-0.1084-.0899-0.2353-0.0821-0.2212-0.1788a0.63052,0.63052,0,0,0,.1211-0.247,0.52428,0.52428,0,0,0-.3071-0.4658,5.6835,5.6835,0,0,1-.5332-0.2569,0.13027,0.13027,0,0,1,.022-0.1426c0.0303-.0664.104-0.0527-0.022-0.0898a2.05522,2.05522,0,0,1-.5708-0.2012,0.30424,0.30424,0,0,1-.0972-0.2422,0.09721,0.09721,0,0,1,.0591-0.0078" transform="translate(-0.05544 -0.05468)"/><path class="cls-10" d="M15.6182,1.33479a0.1952,0.1952,0,0,0,.0669.1806,1.20848,1.20848,0,0,0,.3091.1456c0.1421,0.0586.2993,0.1328,0.4262,0.1855a0.67021,0.67021,0,0,1,.3399.1426,0.93274,0.93274,0,0,1,.1938.3545c0.0371,0.1054.0371,0.2158,0.0894,0.3574a0.31443,0.31443,0,0,0,.0967.2353,0.12341,0.12341,0,0,0,.1679-0.0292,0.7421,0.7421,0,0,0,.0904-0.2881,0.84343,0.84343,0,0,1,.1709-0.376,1.05192,1.05192,0,0,1,.601-0.3359,5.047,5.047,0,0,0,.5259-0.0674,0.40515,0.40515,0,0,0,.3399-0.1787,0.19044,0.19044,0,0,0-.1158-0.2735,6.00888,6.00888,0,0,0-1.664-.2754c-0.7051.0215-1.3833,0.1524-1.459,0.1485A0.19829,0.19829,0,0,0,15.6182,1.33479Zm2.1523,1.1543a0.2444,0.2444,0,1,0,.2447-0.2442A0.24405,0.24405,0,0,0,17.7705,2.48909Zm-1.582-.1084a0.2444,0.2444,0,1,0,.2446-0.2451A0.24553,0.24553,0,0,0,16.1885,2.38068Zm-1.6753-1.4893s2.124-.2685,2.5982-0.2754a11.98807,11.98807,0,0,1,1.7558.2305c0.377,0.0674,1.1133.0234,1.1582,0.0606a0.13351,0.13351,0,0,1,.0147.2265,2.13329,2.13329,0,0,0-.5869.4707,0.2688,0.2688,0,0,1-.044.25c-0.0747.0528-.146,0-0.3808,0.1113a1.04167,1.04167,0,0,0-.4439.3096,0.19718,0.19718,0,0,0-.0522.1797,0.36354,0.36354,0,0,1,.06.2236c-0.0522.045-.0898,0.0069-0.1352,0.0518a0.57153,0.57153,0,0,1-.376.1914,0.70736,0.70736,0,0,0-.3247.0146,0.75994,0.75994,0,0,0-.5152.4854c-0.038.1084-.0561,0.1299-0.101,0.0928a1.35638,1.35638,0,0,1-.104-0.2198,0.80265,0.80265,0,0,0-.3741-0.4443,1.74379,1.74379,0,0,1-.5996-0.1269c-0.1084-.0899-0.2353-0.0821-0.2212-0.1788a0.63052,0.63052,0,0,0,.1211-0.247,0.52428,0.52428,0,0,0-.3071-0.4658,5.6835,5.6835,0,0,1-.5332-0.2569,0.13027,0.13027,0,0,1,.022-0.1426c0.0303-.0664.104-0.0527-0.022-0.0898a2.05522,2.05522,0,0,1-.5708-0.2012,0.30424,0.30424,0,0,1-.0972-0.2422A0.09721,0.09721,0,0,1,14.5132.89139Z" transform="translate(-0.05544 -0.05468)"/><path class="cls-3" d="M15.6182,1.33479a0.1952,0.1952,0,0,0,.0669.1806,1.20848,1.20848,0,0,0,.3091.1456c0.1421,0.0586.2993,0.1328,0.4262,0.1855a0.67021,0.67021,0,0,1,.3399.1426,0.93274,0.93274,0,0,1,.1938.3545c0.0371,0.1054.0371,0.2158,0.0894,0.3574a0.31443,0.31443,0,0,0,.0967.2353,0.12341,0.12341,0,0,0,.1679-0.0292,0.7421,0.7421,0,0,0,.0904-0.2881,0.84343,0.84343,0,0,1,.1709-0.376,1.05192,1.05192,0,0,1,.601-0.3359,5.047,5.047,0,0,0,.5259-0.0674,0.40515,0.40515,0,0,0,.3399-0.1787,0.19044,0.19044,0,0,0-.1158-0.2735,6.00888,6.00888,0,0,0-1.664-.2754c-0.7051.0215-1.3833,0.1524-1.459,0.1485a0.19829,0.19829,0,0,0-.1792.0742" transform="translate(-0.05544 -0.05468)"/><path class="cls-11" d="M15.6182,1.33479a0.1952,0.1952,0,0,0,.0669.1806,1.20848,1.20848,0,0,0,.3091.1456c0.1421,0.0586.2993,0.1328,0.4262,0.1855a0.67021,0.67021,0,0,1,.3399.1426,0.93274,0.93274,0,0,1,.1938.3545c0.0371,0.1054.0371,0.2158,0.0894,0.3574a0.31443,0.31443,0,0,0,.0967.2353,0.12341,0.12341,0,0,0,.1679-0.0292,0.7421,0.7421,0,0,0,.0904-0.2881,0.84343,0.84343,0,0,1,.1709-0.376,1.05192,1.05192,0,0,1,.601-0.3359,5.047,5.047,0,0,0,.5259-0.0674,0.40515,0.40515,0,0,0,.3399-0.1787,0.19044,0.19044,0,0,0-.1158-0.2735,6.00888,6.00888,0,0,0-1.664-.2754c-0.7051.0215-1.3833,0.1524-1.459,0.1485A0.19829,0.19829,0,0,0,15.6182,1.33479Z" transform="translate(-0.05544 -0.05468)"/><path class="cls-1" d="M15.6294,5.409v0.4053a0.17407,0.17407,0,0,1,.2539,0V5.41489c-0.0708-.125-0.1782-0.1368-0.2539-0.0059" transform="translate(-0.05544 -0.05468)"/><path class="cls-10" d="M15.6294,5.409v0.4053a0.17407,0.17407,0,0,1,.2539,0V5.41489C15.8125,5.28989,15.7051,5.27809,15.6294,5.409Z" transform="translate(-0.05544 -0.05468)"/><path class="cls-1" d="M15.7242,6.77519l0.1259,0.3877a0.243,0.243,0,0,1,.3091-0.0107l-0.1919-.4493c-0.105-.0976-0.2119-0.0751-0.2431.0723" transform="translate(-0.05544 -0.05468)"/><path class="cls-10" d="M15.7242,6.77519l0.1259,0.3877a0.243,0.243,0,0,1,.3091-0.0107l-0.1919-.4493C15.86231,6.60529,15.7554,6.62779,15.7242,6.77519Z" transform="translate(-0.05544 -0.05468)"/><path class="cls-1" d="M16.2784,8.199a2.99974,2.99974,0,0,0,1.1489,1.1075c0.1089,0.0576.0639-.0733,0.0718-0.0498a3.3886,3.3886,0,0,1-1.022-1.1885,0.12081,0.12081,0,0,0-.1987.1308" transform="translate(-0.05544 -0.05468)"/><path class="cls-10" d="M16.2784,8.199a2.99974,2.99974,0,0,0,1.1489,1.1075c0.1089,0.0576.0639-.0733,0.0718-0.0498a3.3886,3.3886,0,0,1-1.022-1.1885A0.12081,0.12081,0,0,0,16.2784,8.199Z" transform="translate(-0.05544 -0.05468)"/><path class="cls-1" d="M8.1275,9.10239A0.32224,0.32224,0,1,0,8.4082,8.744a0.32094,0.32094,0,0,0-.2807.3584m-2.0884.1132a0.32249,0.32249,0,1,0,.2803-0.3603,0.32159,0.32159,0,0,0-.2803.3603m-1.0088-1.622a0.52154,0.52154,0,0,0,.2432.5205c0.6377,0.2529,1.8227-.0606,2.1836,1.5928a0.07785,0.07785,0,0,0,.1484-0.004A1.56729,1.56729,0,0,1,9.0371,8.036a0.85146,0.85146,0,0,0,.5533-0.2862c0.0561-.1572-0.0743-0.7285.4521-0.7246a0.25231,0.25231,0,0,1,.2617.2188c0.0279,0.3027-.2129.372-0.1279,0.4765a0.196,0.196,0,0,1,.0088.25,1.17517,1.17517,0,0,1-.4419.1914,0.98261,0.98261,0,0,0-.561.4776,0.3209,0.3209,0,0,0-.0108.2422,1.37965,1.37965,0,0,0,.2671.2763,0.64331,0.64331,0,0,0-.3203.0977,0.74557,0.74557,0,0,1-.4629.3096,0.946,0.946,0,0,0-.4219.0712,1.00971,1.00971,0,0,0-.5981.7198c-0.0308.1474-.0518,0.1787-0.1162,0.1377-0.065-.0411-0.0137-0.1231-0.1328-0.2871a0.74465,0.74465,0,0,0-.585-0.4707,1.35881,1.35881,0,0,1-.812-0.1192,1.75942,1.75942,0,0,0-.4092-0.3271,0.35528,0.35528,0,0,0,.186-0.2715,0.60083,0.60083,0,0,0-.4638-0.4893,6.81887,6.81887,0,0,1-.7051-0.2412,0.20121,0.20121,0,0,1-.0278-0.2002c0.0371-.1621.0088-0.0859-0.1201-0.2051-0.128-.1181-0.0611-0.6269.2622-0.6084a0.34021,0.34021,0,0,1,.3188.3194" transform="translate(-0.05544 -0.05468)"/><path class="cls-12" d="M8.1275,9.10239A0.32224,0.32224,0,1,0,8.4082,8.744,0.32094,0.32094,0,0,0,8.1275,9.10239Zm-2.0884.1132a0.32249,0.32249,0,1,0,.2803-0.3603A0.32159,0.32159,0,0,0,6.0391,9.21559Zm-1.0088-1.622a0.52154,0.52154,0,0,0,.2432.5205c0.6377,0.2529,1.8227-.0606,2.1836,1.5928a0.07785,0.07785,0,0,0,.1484-0.004A1.56729,1.56729,0,0,1,9.0371,8.036a0.85146,0.85146,0,0,0,.5533-0.2862c0.0561-.1572-0.0743-0.7285.4521-0.7246a0.25231,0.25231,0,0,1,.2617.2188c0.0279,0.3027-.2129.372-0.1279,0.4765a0.196,0.196,0,0,1,.0088.25,1.17517,1.17517,0,0,1-.4419.1914,0.98261,0.98261,0,0,0-.561.4776,0.3209,0.3209,0,0,0-.0108.2422,1.37965,1.37965,0,0,0,.2671.2763,0.64331,0.64331,0,0,0-.3203.0977,0.74557,0.74557,0,0,1-.4629.3096,0.946,0.946,0,0,0-.4219.0712,1.00971,1.00971,0,0,0-.5981.7198c-0.0308.1474-.0518,0.1787-0.1162,0.1377-0.065-.0411-0.0137-0.1231-0.1328-0.2871a0.74465,0.74465,0,0,0-.585-0.4707,1.35881,1.35881,0,0,1-.812-0.1192,1.75942,1.75942,0,0,0-.4092-0.3271,0.35528,0.35528,0,0,0,.186-0.2715,0.60083,0.60083,0,0,0-.4638-0.4893,6.81887,6.81887,0,0,1-.7051-0.2412,0.20121,0.20121,0,0,1-.0278-0.2002c0.0371-.1621.0088-0.0859-0.1201-0.2051-0.128-.1181-0.0611-0.6269.2622-0.6084A0.34021,0.34021,0,0,1,5.03031,7.59359Z" transform="translate(-0.05544 -0.05468)"/><path class="cls-1" d="M30.3365,9.21079a0.32248,0.32248,0,1,0-.3604.2802,0.32361,0.32361,0,0,0,.3604-0.2802m-2.0894-.1123a0.32274,0.32274,0,0,0-.6406-0.0791,0.32273,0.32273,0,1,0,.6406.0791m3.2061-1.5098a0.34022,0.34022,0,0,1,.3183-0.3193c0.3228-.0186.3897,0.4902,0.2608,0.6093-0.128.1182-.1558,0.042-0.1192,0.2041a0.1977,0.1977,0,0,1-.0278.2002,6.31473,6.31473,0,0,1-.7051.2403,0.6013,0.6013,0,0,0-.4639.4902,0.35526,0.35526,0,0,0,.1861.2715,1.69985,1.69985,0,0,0-.4092.3281,1.36786,1.36786,0,0,1-.813.1172,0.74416,0.74416,0,0,0-.583.4717c-0.1201.164-.0688,0.2461-0.1338,0.2871-0.0649.042-.0849,0.0097-0.1172-0.1377a1.00236,1.00236,0,0,0-.5957-0.7197,0.94219,0.94219,0,0,0-.4233-0.0713,0.74663,0.74663,0,0,1-.4619-0.3096,0.65152,0.65152,0,0,0-.3199-0.0977,1.48264,1.48264,0,0,0,.2662-0.2763,0.328,0.328,0,0,0-.0113-0.2422,0.98626,0.98626,0,0,0-.561-0.4775,1.13321,1.13321,0,0,1-.4409-0.1915,0.19388,0.19388,0,0,1,.0088-0.249c0.0849-.1054-0.1568-0.1748-0.1289-0.4785a0.25239,0.25239,0,0,1,.2622-0.2178c0.5258-.0039.396,0.5684,0.4516,0.7246a0.84915,0.84915,0,0,0,.5523.2862,1.57009,1.57009,0,0,1,1.4331,1.667,0.077,0.077,0,0,0,.1469.0039c0.3619-1.6524,1.5469-1.3399,2.1836-1.5938a0.52145,0.52145,0,0,0,.2452-0.5195" transform="translate(-0.05544 -0.05468)"/><path class="cls-12" d="M30.3365,9.21079a0.32248,0.32248,0,1,0-.3604.2802A0.32361,0.32361,0,0,0,30.3365,9.21079Zm-2.0894-.1123a0.32274,0.32274,0,0,0-.6406-0.0791A0.32273,0.32273,0,1,0,28.2471,9.09849Zm3.2061-1.5098a0.34022,0.34022,0,0,1,.3183-0.3193c0.3228-.0186.3897,0.4902,0.2608,0.6093-0.128.1182-.1558,0.042-0.1192,0.2041a0.1977,0.1977,0,0,1-.0278.2002,6.31473,6.31473,0,0,1-.7051.2403,0.6013,0.6013,0,0,0-.4639.4902,0.35526,0.35526,0,0,0,.1861.2715,1.69985,1.69985,0,0,0-.4092.3281,1.36786,1.36786,0,0,1-.813.1172,0.74416,0.74416,0,0,0-.583.4717c-0.1201.164-.0688,0.2461-0.1338,0.2871-0.0649.042-.0849,0.0097-0.1172-0.1377a1.00236,1.00236,0,0,0-.5957-0.7197,0.94219,0.94219,0,0,0-.4233-0.0713,0.74663,0.74663,0,0,1-.4619-0.3096,0.65152,0.65152,0,0,0-.3199-0.0977,1.48264,1.48264,0,0,0,.2662-0.2763,0.328,0.328,0,0,0-.0113-0.2422,0.98626,0.98626,0,0,0-.561-0.4775,1.13321,1.13321,0,0,1-.4409-0.1915,0.19388,0.19388,0,0,1,.0088-0.249c0.0849-.1054-0.1568-0.1748-0.1289-0.4785a0.25239,0.25239,0,0,1,.2622-0.2178c0.5258-.0039.396,0.5684,0.4516,0.7246a0.84915,0.84915,0,0,0,.5523.2862,1.57009,1.57009,0,0,1,1.4331,1.667,0.077,0.077,0,0,0,.1469.0039c0.3619-1.6524,1.5469-1.3399,2.1836-1.5938A0.52145,0.52145,0,0,0,31.4532,7.58868Z" transform="translate(-0.05544 -0.05468)"/><path class="cls-2" d="M35.5655,30.909l-0.7984,1.2178,1.1031,1.2148H27.3921v-1.7099H26.0635V30.909h9.502ZM9.5054,32.12479H26.9522v2.3946H9.5054v-2.3946ZM0.8384,30.909h9.5029v0.7217h-1.33v1.7099H0.5352l1.102-1.2158Z" transform="translate(-0.05544 -0.05468)"/><path class="cls-10" d="M35.5655,30.909l-0.7984,1.2178,1.1031,1.2148H27.3921v-1.7099H26.0635V30.909h9.502ZM9.5054,32.12479H26.9512v2.3936H9.5054v-2.3936ZM0.8384,30.909h9.5029v0.7217h-1.33v1.7099H0.5352l1.102-1.2158Z" transform="translate(-0.05544 -0.05468)"/><path class="cls-2" d="M6.7852,4.63359a0.41717,0.41717,0,0,1,.4683-0.3301,0.418,0.418,0,0,1,.4687.3301,0.41887,0.41887,0,0,1-.4687.3291,0.418,0.418,0,0,1-.4683-0.3291m2.6831,0.4522a0.41833,0.41833,0,0,1,.4692-0.3291,0.41861,0.41861,0,0,1,.4698.3291,0.41846,0.41846,0,0,1-.4698.33,0.69095,0.69095,0,0,1-.1113-0.0097,1.665,1.665,0,0,0-.397.9082v0.7236H5.0205s0.0176-.5146,0-0.7031a2.57023,2.57023,0,0,0-.4721-0.9229,0.45421,0.45421,0,0,1-.065.0039,0.41819,0.41819,0,0,1-.4692-0.33,0.41833,0.41833,0,0,1,.4692-0.3291,0.41814,0.41814,0,0,1,.4688.3291,0.268,0.268,0,0,1-.0069.0576c1.0889,1.1338,1.9502,1.2676,2.0601-.0449H7.4341c0.0303,1.2646.6861,1.2431,2.0542,0.081a0.2356,0.2356,0,0,1-.02-0.0937" transform="translate(-0.05544 -0.05468)"/><path class="cls-10" d="M6.7852,4.63359a0.41717,0.41717,0,0,1,.4683-0.3301,0.418,0.418,0,0,1,.4687.3301,0.41887,0.41887,0,0,1-.4687.3291A0.418,0.418,0,0,1,6.7852,4.63359Zm2.6831,0.4522a0.41833,0.41833,0,0,1,.4692-0.3291,0.41861,0.41861,0,0,1,.4698.3291,0.41846,0.41846,0,0,1-.4698.33,0.69095,0.69095,0,0,1-.1113-0.0097,1.665,1.665,0,0,0-.397.9082v0.7236H5.0205s0.0176-.5146,0-0.7031a2.57023,2.57023,0,0,0-.4721-0.9229,0.45421,0.45421,0,0,1-.065.0039,0.41819,0.41819,0,0,1-.4692-0.33,0.41833,0.41833,0,0,1,.4692-0.3291,0.41814,0.41814,0,0,1,.4688.3291,0.268,0.268,0,0,1-.0069.0576c1.0889,1.1338,1.9502,1.2676,2.0601-.0449H7.4341c0.0303,1.2646.6861,1.2431,2.0542,0.081A0.2356,0.2356,0,0,1,9.46831,5.08579Z" transform="translate(-0.05544 -0.05468)"/><path class="cls-2" d="M28.76031,4.62868a0.49827,0.49827,0,0,1,.938,0,0.49873,0.49873,0,0,1-.938,0m-2.6851.4522a0.49873,0.49873,0,0,1,.938,0,0.22476,0.22476,0,0,1-.019.0937c1.3681,1.1621,2.0249,1.1836,2.0542-.08h0.4277c0.1113,1.3115.9722,1.1767,2.061,0.0439a0.28257,0.28257,0,0,1-.0068-0.0576,0.49873,0.49873,0,0,1,.938,0,0.41761,0.41761,0,0,1-.4678.3301,0.50106,0.50106,0,0,1-.0674-0.0039,2.59877,2.59877,0,0,0-.4707.9228c-0.018.1885,0,.7031,0,0.7031h-4.4091V6.30939a1.66851,1.66851,0,0,0-.397-0.9092,0.59894,0.59894,0,0,1-.1109.0108,0.41871,0.41871,0,0,1-.4702-0.3301" transform="translate(-0.05544 -0.05468)"/><path class="cls-10" d="M28.76031,4.62868a0.49827,0.49827,0,0,1,.938,0A0.49873,0.49873,0,0,1,28.76031,4.62868Zm-2.6851.4522a0.49873,0.49873,0,0,1,.938,0,0.22476,0.22476,0,0,1-.019.0937c1.3681,1.1621,2.0249,1.1836,2.0542-.08h0.4277c0.1113,1.3115.9722,1.1767,2.061,0.0439a0.28257,0.28257,0,0,1-.0068-0.0576,0.49873,0.49873,0,0,1,.938,0,0.41761,0.41761,0,0,1-.4678.3301,0.50106,0.50106,0,0,1-.0674-0.0039,2.59877,2.59877,0,0,0-.4707.9228c-0.018.1885,0,.7031,0,0.7031h-4.4091V6.30939a1.66851,1.66851,0,0,0-.397-0.9092,0.59894,0.59894,0,0,1-.1109.0108A0.41871,0.41871,0,0,1,26.0752,5.08089Z" transform="translate(-0.05544 -0.05468)"/><path class="cls-1" d="M2.7544,1.60139a0.60323,0.60323,0,0,0-.164.8047,2.00649,2.00649,0,0,0,1.9121,1.001,1.29647,1.29647,0,0,1-.9492-1.0137c-0.1192-.6231-0.3331-0.9287-0.7989-0.792" transform="translate(-0.05544 -0.05468)"/><path class="cls-10" d="M2.7544,1.60139a0.60323,0.60323,0,0,0-.164.8047,2.00649,2.00649,0,0,0,1.9121,1.001,1.29647,1.29647,0,0,1-.9492-1.0137C3.4341,1.77029,3.2202,1.46468,2.7544,1.60139Z" transform="translate(-0.05544 -0.05468)"/><path class="cls-1" d="M12.5425,0.06329c-1.2861.2158-1.4131,0.4502-1.4873,0.5537a3.12862,3.12862,0,0,0,0,1.0449,0.75645,0.75645,0,0,0,.3203.417c0.0498-.7627.145-0.5342,0.4297-0.7734a3.02545,3.02545,0,0,0,.7373-1.2422" transform="translate(-0.05544 -0.05468)"/><path class="cls-10" d="M12.5425,0.06329c-1.2861.2158-1.4131,0.4502-1.4873,0.5537a3.12862,3.12862,0,0,0,0,1.0449,0.75645,0.75645,0,0,0,.3203.417c0.0498-.7627.145-0.5342,0.4297-0.7734A3.02545,3.02545,0,0,0,12.5425.06329Z" transform="translate(-0.05544 -0.05468)"/><path class="cls-1" d="M33.6114,1.62779a0.60075,0.60075,0,0,1,.1621.8037,1.99942,1.99942,0,0,1-1.9102,1.0009,1.29527,1.29527,0,0,0,.9483-1.0127c0.1196-.622.3339-0.9287,0.7998-0.7919" transform="translate(-0.05544 -0.05468)"/><path class="cls-10" d="M33.6114,1.62779a0.60075,0.60075,0,0,1,.1621.8037,1.99942,1.99942,0,0,1-1.9102,1.0009,1.29527,1.29527,0,0,0,.9483-1.0127C32.9312,1.79768,33.1455,1.491,33.6114,1.62779Z" transform="translate(-0.05544 -0.05468)"/><path class="cls-1" d="M23.82231,0.09059c1.2861,0.2139,1.4131.4493,1.4868,0.5528a3.05721,3.05721,0,0,1,0,1.0439,0.74662,0.74662,0,0,1-.3188.417c-0.0498-.7617-0.1451-0.5322-0.4302-0.7724a3.01379,3.01379,0,0,1-.7378-1.2413" transform="translate(-0.05544 -0.05468)"/><path class="cls-10" d="M23.82231,0.09059c1.2861,0.2139,1.4131.4493,1.4868,0.5528a3.05721,3.05721,0,0,1,0,1.0439,0.74662,0.74662,0,0,1-.3188.417c-0.0498-.7617-0.1451-0.5322-0.4302-0.7724A3.01379,3.01379,0,0,1,23.82231.09059Z" transform="translate(-0.05544 -0.05468)"/><path class="cls-1" d="M10.0484,16.42559l-0.1861.7129c-0.0859-.1826-0.3051-0.1055-0.457-0.0195l0.2832-.8291c0.1567-.1778.315-0.1368,0.3599,0.1357" transform="translate(-0.05544 -0.05468)"/><path class="cls-13" d="M10.0484,16.42559l-0.1861.7129c-0.0859-.1826-0.3051-0.1055-0.457-0.0195l0.2832-.8291C9.8452,16.11209,10.0035,16.15309,10.0484,16.42559Z" transform="translate(-0.05544 -0.05468)"/><path class="cls-1" d="M9.1885,19.04668a5.0666,5.0666,0,0,1-1.7041,2.041c-0.6601.4346-.1142-0.0566-0.105-0.0889a6.09574,6.09574,0,0,0,1.5137-2.1943,0.19132,0.19132,0,0,1,.2954.2422" transform="translate(-0.05544 -0.05468)"/><path class="cls-13" d="M9.1885,19.04668a5.0666,5.0666,0,0,1-1.7041,2.041c-0.6601.4346-.1142-0.0566-0.105-0.0889a6.09574,6.09574,0,0,0,1.5137-2.1943A0.19132,0.19132,0,0,1,9.1885,19.04668Z" transform="translate(-0.05544 -0.05468)"/><path class="cls-1" d="M10.2154,13.92068v0.749a0.22113,0.22113,0,0,0-.376,0v-0.7392c0.105-.2295.2651-0.252,0.376-0.0098" transform="translate(-0.05544 -0.05468)"/><path class="cls-13" d="M10.2154,13.92068v0.749a0.22113,0.22113,0,0,0-.376,0v-0.7392C9.9444,13.701,10.1045,13.67849,10.2154,13.92068Z" transform="translate(-0.05544 -0.05468)"/><path class="cls-1" d="M9.5474,11.79179a1.11778,1.11778,0,0,1,.4248.8028c0.0171,0.0058-.2861-0.3282-0.4287-0.0225a1.20158,1.20158,0,0,0-.3403-0.6211c-0.0747-.0166-0.105-0.4316.3442-0.1592" transform="translate(-0.05544 -0.05468)"/><path class="cls-13" d="M9.5474,11.79179a1.11778,1.11778,0,0,1,.4248.8028c0.0171,0.0058-.2861-0.3282-0.4287-0.0225a1.20158,1.20158,0,0,0-.3403-0.6211C9.1285,11.93439,9.0982,11.51939,9.5474,11.79179Z" transform="translate(-0.05544 -0.05468)"/><path class="cls-1" d="M8.78131,13.91579l0.04,0.7491a0.22076,0.22076,0,0,0-.376.0175l-0.039-.7373c0.0928-.2343.2519-0.2656,0.375-0.0293" transform="translate(-0.05544 -0.05468)"/><path class="cls-13" d="M8.78131,13.91579l0.04,0.7491a0.22076,0.22076,0,0,0-.376.0175l-0.039-.7373C8.4991,13.71079,8.6582,13.67949,8.78131,13.91579Z" transform="translate(-0.05544 -0.05468)"/><path class="cls-1" d="M7.8614,11.88559a1.45194,1.45194,0,0,1,.5937.6943c0.0181,0.0059-.5176-0.4395-0.5688.04a1.05783,1.05783,0,0,0-.3609-0.5576c-0.0752-.0127-0.126-0.4248.336-0.1767" transform="translate(-0.05544 -0.05468)"/><path class="cls-13" d="M7.8614,11.88559a1.45194,1.45194,0,0,1,.5937.6943c0.0181,0.0059-.5176-0.4395-0.5688.04a1.05783,1.05783,0,0,0-.3609-0.5576C7.4502,12.04959,7.3994,11.63749,7.8614,11.88559Z" transform="translate(-0.05544 -0.05468)"/><path class="cls-1" d="M26.4341,16.42068l0.1851,0.7129c0.0879-.1826.3071-0.1055,0.459-0.0195l-0.2837-.8281c-0.1573-.1788-0.315-0.1387-0.3604.1347" transform="translate(-0.05544 -0.05468)"/><path class="cls-13" d="M26.4341,16.42068l0.1851,0.7129c0.0879-.1826.3071-0.1055,0.459-0.0195l-0.2837-.8281C26.6372,16.10719,26.4795,16.14729,26.4341,16.42068Z" transform="translate(-0.05544 -0.05468)"/><path class="cls-1" d="M27.2945,19.04279a5.057,5.057,0,0,0,1.7036,2.0391c0.6611,0.4355.1142-.0567,0.1055-0.0889a6.069,6.069,0,0,1-1.5132-2.1934,0.19187,0.19187,0,0,0-.2959.2432" transform="translate(-0.05544 -0.05468)"/><path class="cls-13" d="M27.2945,19.04279a5.057,5.057,0,0,0,1.7036,2.0391c0.6611,0.4355.1142-.0567,0.1055-0.0889a6.069,6.069,0,0,1-1.5132-2.1934A0.19187,0.19187,0,0,0,27.2945,19.04279Z" transform="translate(-0.05544 -0.05468)"/><path class="cls-1" d="M26.2671,13.91579v0.75a0.2195,0.2195,0,0,1,.376,0v-0.7392c-0.105-.2305-0.2646-0.252-0.376-0.0108" transform="translate(-0.05544 -0.05468)"/><path class="cls-13" d="M26.2671,13.91579v0.75a0.2195,0.2195,0,0,1,.376,0v-0.7392C26.5381,13.69609,26.3785,13.67459,26.2671,13.91579Z" transform="translate(-0.05544 -0.05468)"/><path class="cls-1" d="M26.9341,11.78789a1.11655,1.11655,0,0,0-.4238.8018c-0.0171.0058,0.2871-.3282,0.4292-0.0235a1.20227,1.20227,0,0,1,.3398-0.6201c0.0752-.0166.105-0.4307-0.3452-0.1582" transform="translate(-0.05544 -0.05468)"/><path class="cls-13" d="M26.9341,11.78789a1.11655,1.11655,0,0,0-.4238.8018c-0.0171.0058,0.2871-.3282,0.4292-0.0235a1.20227,1.20227,0,0,1,.3398-0.6201C27.3545,11.92949,27.38431,11.51539,26.9341,11.78789Z" transform="translate(-0.05544 -0.05468)"/><path class="cls-1" d="M27.7012,13.911l-0.0391.749a0.21959,0.21959,0,0,1,.375.0185l0.0391-.7392c-0.0918-.2334-0.2519-0.2647-0.375-0.0283" transform="translate(-0.05544 -0.05468)"/><path class="cls-13" d="M27.7012,13.911l-0.0391.749a0.21959,0.21959,0,0,1,.375.0185l0.0391-.7392C27.9844,13.70589,27.82431,13.67459,27.7012,13.911Z" transform="translate(-0.05544 -0.05468)"/><path class="cls-1" d="M28.6202,11.88068a1.47145,1.47145,0,0,0-.5928.6943c-0.0171.0049,0.5171-.4394,0.5688,0.0401a1.06518,1.06518,0,0,1,.3599-0.5577c0.0762-.0127.1269-0.4248-0.3359-0.1767" transform="translate(-0.05544 -0.05468)"/><path class="cls-13" d="M28.6202,11.88068a1.47145,1.47145,0,0,0-.5928.6943c-0.0171.0049,0.5171-.4394,0.5688,0.0401a1.06518,1.06518,0,0,1,.3599-0.5577C29.03231,12.04468,29.083,11.63259,28.6202,11.88068Z" transform="translate(-0.05544 -0.05468)"/><path class="cls-2" d="M6.7852,4.63359a0.41717,0.41717,0,0,1,.4683-0.3301,0.418,0.418,0,0,1,.4687.3301,0.41887,0.41887,0,0,1-.4687.3291,0.418,0.418,0,0,1-.4683-0.3291m2.6831,0.4522a0.41833,0.41833,0,0,1,.4692-0.3291,0.41861,0.41861,0,0,1,.4698.3291,0.41846,0.41846,0,0,1-.4698.33,0.69095,0.69095,0,0,1-.1113-0.0097,1.665,1.665,0,0,0-.397.9082v0.7236H5.0205s0.0176-.5146,0-0.7031a2.57023,2.57023,0,0,0-.4721-0.9229,0.45421,0.45421,0,0,1-.065.0039,0.41819,0.41819,0,0,1-.4692-0.33,0.41833,0.41833,0,0,1,.4692-0.3291,0.41814,0.41814,0,0,1,.4688.3291,0.268,0.268,0,0,1-.0069.0576c1.0889,1.1338,1.9502,1.2676,2.0601-.0449H7.4341c0.0303,1.2646.6861,1.2431,2.0542,0.081a0.2356,0.2356,0,0,1-.02-0.0937" transform="translate(-0.05544 -0.05468)"/><path class="cls-10" d="M6.7852,4.63359a0.41717,0.41717,0,0,1,.4683-0.3301,0.418,0.418,0,0,1,.4687.3301,0.41887,0.41887,0,0,1-.4687.3291A0.418,0.418,0,0,1,6.7852,4.63359Zm2.6831,0.4522a0.41833,0.41833,0,0,1,.4692-0.3291,0.41861,0.41861,0,0,1,.4698.3291,0.41846,0.41846,0,0,1-.4698.33,0.69095,0.69095,0,0,1-.1113-0.0097,1.665,1.665,0,0,0-.397.9082v0.7236H5.0205s0.0176-.5146,0-0.7031a2.57023,2.57023,0,0,0-.4721-0.9229,0.45421,0.45421,0,0,1-.065.0039,0.41819,0.41819,0,0,1-.4692-0.33,0.41833,0.41833,0,0,1,.4692-0.3291,0.41814,0.41814,0,0,1,.4688.3291,0.268,0.268,0,0,1-.0069.0576c1.0889,1.1338,1.9502,1.2676,2.0601-.0449H7.4341c0.0303,1.2646.6861,1.2431,2.0542,0.081A0.2356,0.2356,0,0,1,9.46831,5.08579Z" transform="translate(-0.05544 -0.05468)"/><path class="cls-2" d="M19.2505,19.07209a0.7855,0.7855,0,0,0-.2402-0.5684,0.76008,0.76008,0,0,0-.167-0.1259,0.79543,0.79543,0,0,0-1.1792.6943,0.81017,0.81017,0,0,0,.0654.3154,1.144,1.144,0,0,0-1.2983.669,1.26466,1.26466,0,0,0-1.3941,1.2832,0.778,0.778,0,0,0-.6308.7871,0.87271,0.87271,0,0,0-.7412.9267,0.57188,0.57188,0,0,0,.0542,1.1416,2.518,2.518,0,0,1,.5039.9395,2.0651,2.0651,0,0,0,.6582.8711,2.43789,2.43789,0,0,0,.1308,1.0683l0.0762,1.0459a0.77243,0.77243,0,0,0,.5889.5596c0.4658-.0273.542-0.3506,0.3989-0.9678l0.043-1.2392a0.75908,0.75908,0,0,1,.1792.3857c0.063,0.4971.063,1.2324,0.1391,2.1924a0.5581,0.5581,0,0,0,.542.4648,0.54124,0.54124,0,0,0,.5318-0.541,2.00217,2.00217,0,0,0-.1309-0.7656,7.49667,7.49667,0,0,1-.043-1.6924,2.17872,2.17872,0,0,1,.1358-0.9052,1.27478,1.27478,0,0,0,.3042-0.875,2.14278,2.14278,0,0,0,.4941-0.3223,5.21482,5.21482,0,0,0-.0293-1.5401,1.567,1.567,0,0,1-.104-0.9033,0.31874,0.31874,0,0,1,.147-0.2705,0.28412,0.28412,0,0,0,.3662-0.0107,0.42712,0.42712,0,0,1,.2568.3486,3.362,3.362,0,0,1-.0439.7188,1.99216,1.99216,0,0,0,.1758,1.124c0.0293,0.0986-.0157.2178,0.019,0.3144a2.12734,2.12734,0,0,0-.207.709,2.29226,2.29226,0,0,0,.123.627,6.57052,6.57052,0,0,1,.208,2.2265,0.39939,0.39939,0,0,0,.0103.4756,0.60039,0.60039,0,0,0,.7319-0.0244,1.69878,1.69878,0,0,0,.2881-0.4971,8.00427,8.00427,0,0,0-.021-1.7578,0.11749,0.11749,0,0,1,.1177-0.1338,2.0437,2.0437,0,0,1,.2803.6836c-0.0103,1.2461-.1441,1.9551-0.1021,2.2237a0.46934,0.46934,0,0,0,.5669.247,3.04021,3.04021,0,0,0,.6939-0.8105,5.94126,5.94126,0,0,0,.0224-1.7793,1.11189,1.11189,0,0,1,.023-0.3789c0.0317-.1113.0498-0.1299,0.1318-0.1406a0.57045,0.57045,0,0,0,.6978-0.5205,3.33261,3.33261,0,0,0-.022-0.875,0.90208,0.90208,0,0,0-.1997-0.5411,1.19639,1.19639,0,0,0-.2451-1.5713,1.19128,1.19128,0,0,0-.793-1.4697,0.89006,0.89006,0,0,0-1.1201-.9404,0.92525,0.92525,0,0,0-1.0479-.5869,0.78623,0.78623,0,0,0,.0542-0.2881m1.8037-1.2344,1.127-.8193,1.1724,0.8515-0.4483-1.3759,1.1338-.8243h-1.3848l-0.0088-.0273H22.6294l-0.4301-1.3262-0.44,1.3535h-1.435l1.1298,0.8301,0.0293,0.0196Zm-3.9531,0,1.1275-.8193,1.1718,0.8515L18.9522,16.494l1.1343-.8243H18.7012l-0.0088-.0273h-0.0161l-0.4302-1.3262-0.4399,1.3535h-1.436l1.1313,0.8301,0.0288,0.0196Zm-3.9087,0,1.127-.8193,1.1709,0.8515L15.0435,16.494l1.1338-.8243H14.7911l-0.0079-.0273H14.7661l-0.4296-1.3262-0.439,1.3535h-1.436l1.1318,0.8301,0.0269,0.0196Zm5.4209-5.5234a0.79765,0.79765,0,0,1-.5029-0.0391s-0.023.4522-.0161,0.5264a0.91574,0.91574,0,0,0,.3452.1621,0.2597,0.2597,0,0,0,.187-0.0791,4.78726,4.78726,0,0,0-.0132-0.5703m5.9048,9.2744v2.956a2.04657,2.04657,0,0,0,.436-0.6396,1.92374,1.92374,0,0,0-.0327-1.4238,6.96579,6.96579,0,0,0-.4033-0.8926m-12.5039-.083a6.4695,6.4695,0,0,0-.4531.9814,1.91542,1.91542,0,0,0-.0327,1.4209,1.99953,1.99953,0,0,0,.4858.6885v-3.0908Zm5.1191-7.8555h2.5201a1.14977,1.14977,0,0,0-.5123-0.2744,1.1926,1.1926,0,0,0,.2603.2725,4.26131,4.26131,0,0,1-.4902-0.0147c-0.063-.0205-0.5157-0.3096-0.5977-0.3408-0.0742-.0283-0.9599.3047-1.1802,0.3574m-0.6489,0h0.5957a0.7533,0.7533,0,0,1-.104-0.2178,2.99341,2.99341,0,0,0-.4917.2178M9.6841,9.22829c0.0401-.2802.2964-0.3466,0.4102-0.082a0.3472,0.3472,0,0,1-.0479.4092,2.9115,2.9115,0,0,1-.1792,1.2451c-0.1518.1709-.1059,0.2734,0.0943,0.3027a2.66723,2.66723,0,0,1,1.0258,1.1426c0.9219,2.3809.4629,4.8125-1.3022,8.2686a5.20939,5.20939,0,0,0-.2559,2.0312l0.0122,0.4639,1.3531,0.0029,0.542-1.9316a0.39917,0.39917,0,0,1,.289-0.2451l0.3887-.0674v-7.1182h4.208a0.89312,0.89312,0,0,1,.2549-0.5537c0.1142-.0605,1.2593-0.2666,1.2593-0.2666s0.0088-.5781.0088-0.6709a1.57984,1.57984,0,0,0-.4019-0.3799,3.74661,3.74661,0,0,1-.3608-0.5683c-0.1231-.2051-0.2583-0.4727-0.3204-0.5557s-0.3696-.6406-0.4638-0.7939a2.872,2.872,0,0,1-.1651-0.6709,5.74628,5.74628,0,0,0-.5498-1.003,2.10359,2.10359,0,0,1-.6923.3848,3.45158,3.45158,0,0,1-.96.1308,1.35857,1.35857,0,0,1-1.1748-.6845,1.43164,1.43164,0,0,1,.1318-1.1465c0.0283-.0459.0581-0.0459,0.0904,0l0.7587,1.0215a1.21041,1.21041,0,0,0,1.0591.415,1.53063,1.53063,0,0,0,.6802-0.3027,8.99307,8.99307,0,0,1-.4492-1.2979c-0.6812-.0283-3.1182.0371-4.2998-2.0654A7.9868,7.9868,0,0,0,8.9541,2.077a1.19869,1.19869,0,0,0-1.31.0293A1.53607,1.53607,0,0,1,8.4024,1.574a5.83165,5.83165,0,0,1,.8091-0.0058,4.46438,4.46438,0,0,1,1.6108,1.0771,5.82718,5.82718,0,0,1,.3389,1.3858,3.829,3.829,0,0,0,.5522.7881,2.29306,2.29306,0,0,1-.0439-0.8252,2.70432,2.70432,0,0,0,.8149.3886,5.81837,5.81837,0,0,1,1.104,1.4112,2.06735,2.06735,0,0,0,1.25.5595l-0.0102-.0498a2.303,2.303,0,0,1,.7871-2.331c0.0508-.0108.104-0.0694,0.0058-0.1006a0.51264,0.51264,0,0,1-.3598-0.5156c-0.0108-.2012-0.0918-1.2578-0.0611-1.3701,0.0303-.1143.2149-0.0313,0.2359,0.0292,0.02,0.0625.0512,0.8165,0.0932,1.1348a0.78893,0.78893,0,0,0,.4331.5654,5.32,5.32,0,0,0,.8238.0108c0.145,0,.042-0.0303.124-0.0713a0.19083,0.19083,0,0,1,.1963-0.0107,0.2262,0.2262,0,0,1-.0313.248,0.83874,0.83874,0,0,1-.4341.2158,2.8691,2.8691,0,0,1-.4628-0.0303,0.71525,0.71525,0,0,0-.5259.2569,2.11882,2.11882,0,0,0-.4942,1.1025,2.49928,2.49928,0,0,0,.1451,1.3711c0.102,0.2695.3178,0.9287,0.5039,1.2901s0.4331,0.6689.5571,0.9062a1.40589,1.40589,0,0,1,.1958.6191,8.46542,8.46542,0,0,0,.979,1.917,1.15208,1.15208,0,0,0,.958.5039,0.67993,0.67993,0,0,0,.5772-0.1328,6.50161,6.50161,0,0,0-.5972-1.1455,0.32286,0.32286,0,0,0-.1846-0.1318,0.19483,0.19483,0,0,1,0-.1563,1.05674,1.05674,0,0,1,.5357.125,18.63549,18.63549,0,0,1,1,2.0508,2.72866,2.72866,0,0,0,.6982.2149c0.042-.0108-0.5371-1.503-0.5273-1.5635a0.48012,0.48012,0,0,1,.2944,0c0.0308,0,.5298,1.5996.5298,1.5996l0.2309,0.0713c-0.084-.3262-0.3398-2.086-0.372-2.1055a9.634,9.634,0,0,1-2.751-2.5566,2.98142,2.98142,0,0,1-.5371-1.8545,1.30167,1.30167,0,0,1,.311-0.9912,0.3596,0.3596,0,0,1,.3594-0.1026,0.15609,0.15609,0,0,1-.0103.2061,1.49573,1.49573,0,0,0-.2768.9375c-0.1543,2.0312,3.9048,4.6787,3.5762,4.3516-0.0313-.0323-0.2374-0.5684-0.2784-0.6514-0.042-.082-1.4848-1.1953-1.5571-1.3076-0.0718-.1123-0.0928-0.2325.0542-0.2989a15.9887,15.9887,0,0,1,1.5332.8868c0.0376-.003,0-0.0528-0.02-0.1133-0.021-.0635-1.2993-1.0322-1.3203-1.0821a0.45308,0.45308,0,0,1,.1342-0.2802c0.042-.0098,1.0411.7236,1.0918,0.7422,0.0533,0.0224-.0097-0.1026-0.02-0.1641-0.0107-.0615-0.8857-0.8457-0.9267-0.8955a1.00807,1.00807,0,0,1,.0927-0.4033c0.0103-.0205.731,0.6181,0.731,0.6181a0.76314,0.76314,0,0,0-.04-0.2148,6.01247,6.01247,0,0,0-.6187-0.7637,0.98369,0.98369,0,0,1,.0708-0.4736,1.37046,1.37046,0,0,1,.3618.3701s0.02,0.0088-.0517-0.1543a5.19323,5.19323,0,0,0-1.4541-1.6797,0.23154,0.23154,0,0,1-.1538-0.1465c-0.0103-.0605.1337-0.0507,0.247-0.0507,0.1138,0,.1446-0.0313.1558-0.1133a0.29926,0.29926,0,0,0-.1968-0.2149,0.52042,0.52042,0,0,0-.4121.0498,1.03517,1.03517,0,0,1-.5669-0.1025c-0.0723-.0313-0.062-0.0732.0308-0.0928a0.67833,0.67833,0,0,0,.5571-0.2773,4.15454,4.15454,0,0,1-1.2871.0185,1.50566,1.50566,0,0,1-.2691-0.2754c-0.0517-.0752.023-0.1045,0.0811-0.1045,0.061,0,.1279.1416,0.2622,0.1797a8.54754,8.54754,0,0,0,1.2168-.0459,0.63,0.63,0,0,0,.3389-0.2519c0.06-.0537.0083-0.1094-0.0669-0.1162-0.0752-.0078-0.3389.0547-0.437,0.0547-0.0962,0-.104,0-0.104-0.0704a2.80641,2.80641,0,0,1,.5039-0.3203,0.78935,0.78935,0,0,0,.1933-0.3408,0.1081,0.1081,0,0,1,.0899-0.081,0.63589,0.63589,0,0,1,.165.3613,1.1916,1.1916,0,0,1-.2842.8389,0.3802,0.3802,0,0,1-.1718.0878c0.0649,0.0782.6098,0.7403,0.892,1.1661,0.1128,0.1728.2437,0.3994,0.3697,0.6357,0.041,0.043.0874,0.0928,0.1133,0.1133a1.00129,1.00129,0,0,0,.9277.4521,1.73957,1.73957,0,0,0,1.4463-.5283A5.81085,5.81085,0,0,1,23.8814,4.41a2.74684,2.74684,0,0,0,.8149-0.3897,2.31581,2.31581,0,0,1-.0439.8252,3.78625,3.78625,0,0,0,.5508-0.7871,5.7482,5.7482,0,0,1,.3403-1.3857,4.45549,4.45549,0,0,1,1.6108-1.0781,5.66456,5.66456,0,0,1,.8081.0058,1.52519,1.52519,0,0,1,.7588.5332,1.195,1.195,0,0,0-1.31-.0303,7.96863,7.96863,0,0,0-1.6729,2.5655c-1.1982,2.1289-3.7119,2.082-4.478,2.0508L20.7295,6.702c0.0186,0.0459.0337,0.0879,0.0469,0.124,0.0498,0.1523.1309,0.626,0.2261,1.1787a1.25038,1.25038,0,0,0,.667.3301,1.20416,1.20416,0,0,0,1.0576-.4141l0.7602-1.0234c0.0318-.0449.0621-0.0449,0.0899,0a1.43141,1.43141,0,0,1,.1308,1.1484,1.35618,1.35618,0,0,1-1.1738.6826,3.35728,3.35728,0,0,1-.9609-0.1308,1.58993,1.58993,0,0,1-.5181-0.2852c0.0889,0.5098.1851,1.0498,0.2769,1.4551a9.38944,9.38944,0,0,0,.9795,2.0215c0.0517,0.2158-1.0411-.1348-1.1133-0.1045-0.0718.0312,0.269,1.665,0.207,1.6758a12.751,12.751,0,0,1-1.8262-.4737,3.34791,3.34791,0,0,1-.3398-0.6562c-0.0718-.0508-0.1338.042-0.2271,0.1152a0.71512,0.71512,0,0,0,.1143.5977c0.0928,0.081.4639,0.1533,0.5566,0.2168,0.0913,0.0625.1431,0.2256,0.2061,0.2676,0.062,0.041.2783,0.2158,0.2783,0.2158l-0.1572.0068h4.5078v7.1221l0.3403,0.0576a0.4045,0.4045,0,0,1,.2881.2461l0.542,1.9316,1.3526-.0029,0.0122-.4639a5.19,5.19,0,0,0-.2559-2.0312c-1.7651-3.4561-2.2251-5.8867-1.3032-8.2686a2.6505,2.6505,0,0,1,1.0273-1.1416c0.2007-.0302.2446-0.1318,0.0947-0.3037a2.84969,2.84969,0,0,1-.1796-1.2441,0.34714,0.34714,0,0,1-.0484-0.4092c0.1143-.2666.3701-0.1992,0.4102,0.082a2.854,2.854,0,0,0,.1538,1.4619,0.68119,0.68119,0,0,0,.5312.2989l0.7637,0.0508a0.55473,0.55473,0,0,0,.4522-0.2579c0.1699-.0419.2041,0.0264,0.104,0.2071a0.84133,0.84133,0,0,1-.4532.4189l-1.1518-.0713a1.62069,1.62069,0,0,0-1.438,1.667q-0.624,2.12984.6763,5.5889a8.6592,8.6592,0,0,1,1.0727,2.4697l0.0762,1.5205a1.32056,1.32056,0,0,0,.5566,1.1856,1.57954,1.57954,0,0,1,.8003.8935,2.054,2.054,0,0,0,.9917,1.2998,1.504,1.504,0,0,0,1.374.042,0.58027,0.58027,0,0,0,.0503-0.6504l-0.4502-1.1591a2.20292,2.20292,0,0,0-.541-0.7149c-0.0649-.1328-0.0029-0.2568.1831-0.2002L30.958,23.492l0.3345,0.4248,1.5239,3.9238,1.0791,0.3262L33.4244,24.95l0.3828,0.1485,0.4409,3.1591,0.4092,0.1592-0.625-4.4336q-4.848-4.26555-5.0191-7.4844c-0.1919-1.0966.1182-2.4921,0.7793-2.663,0.1509-.0284.2129,0.0117,0.1826,0.1171a3.74153,3.74153,0,0,0-.4126,2.544c0.253,2.4141,2.083,4.9785,5.5557,7.7344a4.53476,4.53476,0,0,1-.4819-1.501,14.79421,14.79421,0,0,1-2.5171-2.4854l0.2353-.4873a11.84335,11.84335,0,0,0,2.3599,1.8838c-0.0142-.0605-0.0029-0.1738-0.02-0.2275a19.1471,19.1471,0,0,1-2.1402-2.1514l0.2202-.5986a14.91494,14.91494,0,0,0,1.6719,1.4258l-0.0322-.3037a12.25125,12.25125,0,0,1-1.5088-1.6504l0.1919-.7832,1.0601,1.082-0.0279-.4443c-0.3091-.3916-0.5669-0.7637-0.9731-1.3282l0.1308-1,0.5694,0.8418a1.26461,1.26461,0,0,0-.1973-0.6709,10.8288,10.8288,0,0,0-2.3779-2.9658c-0.0142-.126.0972-0.208,0.2759-0.208a0.63792,0.63792,0,0,0,.2861,0c0.1289-.1768.0791-0.3477-0.1528-0.5137a0.64924,0.64924,0,0,0-.646.0957,1.18874,1.18874,0,0,1-.9502-0.2861,0.06413,0.06413,0,0,1,.0571-0.0937l0.7979-.3057v-0.1123a3.51255,3.51255,0,0,1-1.501.0556,0.58191,0.58191,0,0,1-.4761-0.5888c-0.0561-.126.0503-0.1465,0.1343-0.0762a0.6391,0.6391,0,0,0,.5888.3037,4.2439,4.2439,0,0,0,1.254-.1142,0.62853,0.62853,0,0,0,.4751-0.4932c0.019-.0674-0.0132-0.0859-0.0953-0.0586a1.05584,1.05584,0,0,1-.6919.085c-0.143.0039-.1289-0.0801,0.0269-0.1602a1.23119,1.23119,0,0,0,.8364-1.2539c0.0376-.1025.0825-0.1338,0.1319-0.0957a2.017,2.017,0,0,1-.1163,2.1982,0.16653,0.16653,0,0,0-.0498.125l0.0669,0.084a13.389,13.389,0,0,1,2.4761,4.8721c0.3662,1.7168.7739,6.1709,1.457,7.3916a9.64292,9.64292,0,0,0,.9488,1.9238,4.214,4.214,0,0,1-1.7578-.25l0.4921,3.749-2.6582-.7998-0.6738-1.8252a0.1189,0.1189,0,0,0-.208-0.0556,2.30084,2.30084,0,0,1-.9761.04c-0.1889-.0361-0.248-0.0244-0.2661.0742a6.8652,6.8652,0,0,0-.0171,1.0245,0.62039,0.62039,0,0,0,.3672.4414l0.3579,0.1347a0.58,0.58,0,0,1,.3643.2637,1.09987,1.09987,0,0,0,.3828.5088c0.1162,0.042.2061,0.0488,0.1792,0.2568a0.24357,0.24357,0,0,1-.2681.2354,0.59472,0.59472,0,0,1-.458-0.249,2.02671,2.02671,0,0,0-.8081-0.6582,1.916,1.916,0,0,0-1.4219.0087,4.6812,4.6812,0,0,0-1.6743.9258c-0.0688.042-.1157,0.0391-0.145-0.0097l0.166-.8819a0.40042,0.40042,0,0,1,.251-0.2842l1.9414-.5078,0.0327-1.4004a2.59584,2.59584,0,0,1-.9077-1.083,2.02175,2.02175,0,0,0-1.1001-1.1406,2.07209,2.07209,0,0,0-.7622-0.3672,0.27855,0.27855,0,0,1-.0278-0.0361c-0.1841-.0127-0.4951-0.0049-0.9351.0146a0.62673,0.62673,0,0,0-.4341.375l-0.1269.3604a0.66006,0.66006,0,0,1-.2588.3681,1.10226,1.10226,0,0,0-.501.3916,0.37025,0.37025,0,0,1-.0454.0899v0.0732a12.30357,12.30357,0,0,1-6.314,5.7842c-2.9267-1.0644-5.6958-4.2578-6.1899-5.7402v-0.0557a0.35325,0.35325,0,0,1-.0947-0.1465,1.11267,1.11267,0,0,0-.501-0.3916,0.66057,0.66057,0,0,1-.2593-0.3681l-0.1269-.3614a0.627,0.627,0,0,0-.4351-0.374,9.21174,9.21174,0,0,0-.9331-0.0146,0.34861,0.34861,0,0,1-.0288.0361,2.07574,2.07574,0,0,0-.7622.3672,2.0197,2.0197,0,0,0-1.0996,1.1406,2.6143,2.6143,0,0,1-.9082,1.083l0.0341,1.4004,1.94,0.5078a0.39842,0.39842,0,0,1,.251.2842l0.166,0.8818c-0.0293.0479-.0772,0.0518-0.145,0.0088a4.67965,4.67965,0,0,0-1.6729-.9248,1.91514,1.91514,0,0,0-1.4233-.0088,2.00509,2.00509,0,0,0-.8081.6582,0.60215,0.60215,0,0,1-.458.251,0.24619,0.24619,0,0,1-.2676-0.2373c-0.0274-.208.062-0.2148,0.1787-0.2568a1.1057,1.1057,0,0,0,.3833-0.5078,0.57988,0.57988,0,0,1,.3638-0.2657l0.3588-.1338a0.61976,0.61976,0,0,0,.3663-0.4414,6.82863,6.82863,0,0,0-.0162-1.0244c-0.019-.0986-0.0781-0.1103-0.267-0.0752a2.28461,2.28461,0,0,1-.9761-0.04,0.11829,0.11829,0,0,0-.207.0576l-0.6749,1.8242-2.6577.7998,0.4917-3.749a4.19948,4.19948,0,0,1-1.7578.249,9.71872,9.71872,0,0,0,.9497-1.9238c0.6831-1.2197,1.0904-5.6738,1.4571-7.3906a13.359,13.359,0,0,1,2.4751-4.8731l0.0668-.083a0.16741,0.16741,0,0,0-.0498-0.126,2.01438,2.01438,0,0,1-.1162-2.1972c0.0503-.0381.0933-0.0069,0.1324,0.0947a1.22786,1.22786,0,0,0,.8369,1.2539c0.1548,0.0811.1689,0.1651,0.0258,0.1611a1.05475,1.05475,0,0,1-.6918-0.0849c-0.0821-.0274-0.1143-0.0098-0.0953.0586a0.63219,0.63219,0,0,0,.4751.4941,4.33821,4.33821,0,0,0,1.2539.1133,0.64192,0.64192,0,0,0,.5904-0.3027c0.083-.0713.1899-0.0508,0.1318,0.0752a0.57979,0.57979,0,0,1-.4751.5888,3.51378,3.51378,0,0,1-1.501-.0566v0.1133L6.3311,11.866a0.06479,0.06479,0,0,1,.0571.0938,1.18448,1.18448,0,0,1-.9497.2861,0.65738,0.65738,0,0,0-.6474-0.0967c-0.231.1661-.2808,0.3389-0.1519,0.5147a0.63806,0.63806,0,0,0,.2861,0c0.1802,0,.2901.082,0.2749,0.208a10.85509,10.85509,0,0,0-2.3769,2.9658,1.25526,1.25526,0,0,0-.1958.6699l0.5678-.8418,0.1319,1.001c-0.4068.5645-.6651,0.9365-0.9736,1.3281l-0.0293.4444,1.061-1.0821,0.1919,0.7823a12.12027,12.12027,0,0,1-1.5088,1.6513l-0.0322.3038a15.01428,15.01428,0,0,0,1.6723-1.4268l0.2207,0.5996a19.02045,19.02045,0,0,1-2.1421,2.1514c-0.0156.0547-.0048,0.167-0.018,0.2275a11.885,11.885,0,0,0,2.3594-1.8838l0.2348,0.4873a14.86232,14.86232,0,0,1-2.5171,2.4864,4.57562,4.57562,0,0,1-.4819,1.5009c3.4731-2.7568,5.3042-5.3213,5.5571-7.7343a3.75342,3.75342,0,0,0-.414-2.545c-0.0303-.1054.0307-0.1455,0.1831-0.1172,0.6616,0.1709.9716,1.5665,0.7788,2.6631q-0.17071,3.21691-5.02,7.4844l-0.6241,4.4326,0.4082-.1582,0.441-3.1582,0.3837-.1494-0.4707,3.2168,1.0787-.3262,1.5253-3.9238,0.333-.4248,0.4078-.2168c0.186-.0566.248,0.0664,0.184,0.2002a2.20074,2.20074,0,0,0-.5419.7158l-0.4502,1.1582a0.58054,0.58054,0,0,0,.0503.6504,1.50052,1.50052,0,0,0,1.375-.043,2.05392,2.05392,0,0,0,.9907-1.2988,1.57607,1.57607,0,0,1,.8003-0.8935,1.32157,1.32157,0,0,0,.5571-1.1856l0.0757-1.5205a8.65146,8.65146,0,0,1,1.0732-2.4697q1.2957-3.4644.6758-5.5889a1.61852,1.61852,0,0,0-1.438-1.666l-1.1518.0703a0.84494,0.84494,0,0,1-.4532-0.4189c-0.101-.1817-0.0659-0.2491.1031-0.208a0.55422,0.55422,0,0,0,.4531.2587l0.7637-.0507a0.679,0.679,0,0,0,.5312-0.2998,2.86419,2.86419,0,0,0,.1538-1.462" transform="translate(-0.05544 -0.05468)"/><path class="cls-10" d="M19.2505,19.07209a0.7855,0.7855,0,0,0-.2402-0.5684,0.76008,0.76008,0,0,0-.167-0.1259,0.79543,0.79543,0,0,0-1.1792.6943,0.81017,0.81017,0,0,0,.0654.3154,1.144,1.144,0,0,0-1.2983.669,1.26466,1.26466,0,0,0-1.3941,1.2832,0.778,0.778,0,0,0-.6308.7871,0.87271,0.87271,0,0,0-.7412.9267,0.57188,0.57188,0,0,0,.0542,1.1416,2.518,2.518,0,0,1,.5039.9395,2.0651,2.0651,0,0,0,.6582.8711,2.43789,2.43789,0,0,0,.1308,1.0683l0.0762,1.0459a0.77243,0.77243,0,0,0,.5889.5596c0.4658-.0273.542-0.3506,0.3989-0.9678l0.043-1.2392a0.75908,0.75908,0,0,1,.1792.3857c0.063,0.4971.063,1.2324,0.1391,2.1924a0.5581,0.5581,0,0,0,.542.4648,0.54124,0.54124,0,0,0,.5318-0.541,2.00217,2.00217,0,0,0-.1309-0.7656,7.49667,7.49667,0,0,1-.043-1.6924,2.17872,2.17872,0,0,1,.1358-0.9052,1.27478,1.27478,0,0,0,.3042-0.875,2.14278,2.14278,0,0,0,.4941-0.3223,5.21482,5.21482,0,0,0-.0293-1.5401,1.567,1.567,0,0,1-.104-0.9033,0.31874,0.31874,0,0,1,.147-0.2705,0.28412,0.28412,0,0,0,.3662-0.0107,0.42712,0.42712,0,0,1,.2568.3486,3.362,3.362,0,0,1-.0439.7188,1.99216,1.99216,0,0,0,.1758,1.124c0.0293,0.0986-.0157.2178,0.019,0.3144a2.12734,2.12734,0,0,0-.207.709,2.29226,2.29226,0,0,0,.123.627,6.57052,6.57052,0,0,1,.208,2.2265,0.39939,0.39939,0,0,0,.0103.4756,0.60039,0.60039,0,0,0,.7319-0.0244,1.69878,1.69878,0,0,0,.2881-0.4971,8.00427,8.00427,0,0,0-.021-1.7578,0.11749,0.11749,0,0,1,.1177-0.1338,2.0437,2.0437,0,0,1,.2803.6836c-0.0103,1.2461-.1441,1.9551-0.1021,2.2237a0.46934,0.46934,0,0,0,.5669.247,3.04021,3.04021,0,0,0,.6939-0.8105,5.94126,5.94126,0,0,0,.0224-1.7793,1.11189,1.11189,0,0,1,.023-0.3789c0.0317-.1113.0498-0.1299,0.1318-0.1406a0.57045,0.57045,0,0,0,.6978-0.5205,3.33261,3.33261,0,0,0-.022-0.875,0.90208,0.90208,0,0,0-.1997-0.5411,1.19639,1.19639,0,0,0-.2451-1.5713,1.19128,1.19128,0,0,0-.793-1.4697,0.89006,0.89006,0,0,0-1.1201-.9404,0.92525,0.92525,0,0,0-1.0479-.5869A0.78623,0.78623,0,0,0,19.2505,19.07209Zm1.8037-1.2344,1.127-.8193,1.1724,0.8515-0.4483-1.3759,1.1338-.8243h-1.3848l-0.0088-.0273H22.6294l-0.4301-1.3262-0.44,1.3535h-1.435l1.1298,0.8301,0.0293,0.0196Zm-3.9531,0,1.1275-.8193,1.1718,0.8515L18.9522,16.494l1.1343-.8243H18.7012l-0.0088-.0273h-0.0161l-0.4302-1.3262-0.4399,1.3535h-1.436l1.1313,0.8301,0.0288,0.0196Zm-3.9087,0,1.127-.8193,1.1709,0.8515L15.0435,16.494l1.1338-.8243H14.7911l-0.0079-.0273H14.7661l-0.4296-1.3262-0.439,1.3535h-1.436l1.1318,0.8301,0.0269,0.0196Zm5.4209-5.5234a0.79765,0.79765,0,0,1-.5029-0.0391s-0.023.4522-.0161,0.5264a0.91574,0.91574,0,0,0,.3452.1621,0.2597,0.2597,0,0,0,.187-0.0791A4.78726,4.78726,0,0,0,18.61331,12.31429Zm5.9048,9.2744v2.956a2.04657,2.04657,0,0,0,.436-0.6396,1.92374,1.92374,0,0,0-.0327-1.4238A6.96579,6.96579,0,0,0,24.5181,21.58868Zm-12.5039-.083a6.4695,6.4695,0,0,0-.4531.9814,1.91542,1.91542,0,0,0-.0327,1.4209,1.99953,1.99953,0,0,0,.4858.6885v-3.0908Zm5.1191-7.8555h2.5201a1.14977,1.14977,0,0,0-.5123-0.2744,1.1926,1.1926,0,0,0,.2603.2725,4.26131,4.26131,0,0,1-.4902-0.0147c-0.063-.0205-0.5157-0.3096-0.5977-0.3408C18.23931,13.26449,17.3536,13.59749,17.13331,13.65019Zm-0.6489,0h0.5957a0.7533,0.7533,0,0,1-.104-0.2178A2.99341,2.99341,0,0,0,16.4844,13.65019ZM9.6841,9.22829c0.0401-.2802.2964-0.3466,0.4102-0.082a0.3472,0.3472,0,0,1-.0479.4092,2.9115,2.9115,0,0,1-.1792,1.2451c-0.1518.1709-.1059,0.2734,0.0943,0.3027a2.66723,2.66723,0,0,1,1.0258,1.1426c0.9219,2.3809.4629,4.8125-1.3022,8.2686a5.20939,5.20939,0,0,0-.2559,2.0312l0.0122,0.4639,1.3531,0.0029,0.542-1.9316a0.39917,0.39917,0,0,1,.289-0.2451l0.3887-.0674v-7.1182h4.208a0.89312,0.89312,0,0,1,.2549-0.5537c0.1142-.0605,1.2593-0.2666,1.2593-0.2666s0.0088-.5781.0088-0.6709a1.57984,1.57984,0,0,0-.4019-0.3799,3.74661,3.74661,0,0,1-.3608-0.5683c-0.1231-.2051-0.2583-0.4727-0.3204-0.5557s-0.3696-.6406-0.4638-0.7939a2.872,2.872,0,0,1-.1651-0.6709,5.74628,5.74628,0,0,0-.5498-1.003,2.10359,2.10359,0,0,1-.6923.3848,3.45158,3.45158,0,0,1-.96.1308,1.35857,1.35857,0,0,1-1.1748-.6845,1.43164,1.43164,0,0,1,.1318-1.1465c0.0283-.0459.0581-0.0459,0.0904,0l0.7587,1.0215a1.21041,1.21041,0,0,0,1.0591.415,1.53063,1.53063,0,0,0,.6802-0.3027,8.99307,8.99307,0,0,1-.4492-1.2979c-0.6812-.0283-3.1182.0371-4.2998-2.0654A7.9868,7.9868,0,0,0,8.9541,2.077a1.19869,1.19869,0,0,0-1.31.0293A1.53607,1.53607,0,0,1,8.4024,1.574a5.83165,5.83165,0,0,1,.8091-0.0058,4.46438,4.46438,0,0,1,1.6108,1.0771,5.82718,5.82718,0,0,1,.3389,1.3858,3.829,3.829,0,0,0,.5522.7881,2.29306,2.29306,0,0,1-.0439-0.8252,2.70432,2.70432,0,0,0,.8149.3886,5.81837,5.81837,0,0,1,1.104,1.4112,2.06735,2.06735,0,0,0,1.25.5595l-0.0102-.0498a2.303,2.303,0,0,1,.7871-2.331c0.0508-.0108.104-0.0694,0.0058-0.1006a0.51264,0.51264,0,0,1-.3598-0.5156c-0.0108-.2012-0.0918-1.2578-0.0611-1.3701,0.0303-.1143.2149-0.0313,0.2359,0.0292,0.02,0.0625.0512,0.8165,0.0932,1.1348a0.78893,0.78893,0,0,0,.4331.5654,5.32,5.32,0,0,0,.8238.0108c0.145,0,.042-0.0303.124-0.0713a0.19083,0.19083,0,0,1,.1963-0.0107,0.2262,0.2262,0,0,1-.0313.248,0.83874,0.83874,0,0,1-.4341.2158,2.8691,2.8691,0,0,1-.4628-0.0303,0.71525,0.71525,0,0,0-.5259.2569,2.11882,2.11882,0,0,0-.4942,1.1025,2.49928,2.49928,0,0,0,.1451,1.3711c0.102,0.2695.3178,0.9287,0.5039,1.2901s0.4331,0.6689.5571,0.9062a1.40589,1.40589,0,0,1,.1958.6191,8.46542,8.46542,0,0,0,.979,1.917,1.15208,1.15208,0,0,0,.958.5039,0.67993,0.67993,0,0,0,.5772-0.1328,6.50161,6.50161,0,0,0-.5972-1.1455,0.32286,0.32286,0,0,0-.1846-0.1318,0.19483,0.19483,0,0,1,0-.1563,1.05674,1.05674,0,0,1,.5357.125,18.63549,18.63549,0,0,1,1,2.0508,2.72866,2.72866,0,0,0,.6982.2149c0.042-.0108-0.5371-1.503-0.5273-1.5635a0.48012,0.48012,0,0,1,.2944,0c0.0308,0,.5298,1.5996.5298,1.5996l0.2309,0.0713c-0.084-.3262-0.3398-2.086-0.372-2.1055a9.634,9.634,0,0,1-2.751-2.5566,2.98142,2.98142,0,0,1-.5371-1.8545,1.30167,1.30167,0,0,1,.311-0.9912,0.3596,0.3596,0,0,1,.3594-0.1026,0.15609,0.15609,0,0,1-.0103.2061,1.49573,1.49573,0,0,0-.2768.9375c-0.1543,2.0312,3.9048,4.6787,3.5762,4.3516-0.0313-.0323-0.2374-0.5684-0.2784-0.6514-0.042-.082-1.4848-1.1953-1.5571-1.3076-0.0718-.1123-0.0928-0.2325.0542-0.2989a15.9887,15.9887,0,0,1,1.5332.8868c0.0376-.003,0-0.0528-0.02-0.1133-0.021-.0635-1.2993-1.0322-1.3203-1.0821a0.45308,0.45308,0,0,1,.1342-0.2802c0.042-.0098,1.0411.7236,1.0918,0.7422,0.0533,0.0224-.0097-0.1026-0.02-0.1641-0.0107-.0615-0.8857-0.8457-0.9267-0.8955a1.00807,1.00807,0,0,1,.0927-0.4033c0.0103-.0205.731,0.6181,0.731,0.6181a0.76314,0.76314,0,0,0-.04-0.2148,6.01247,6.01247,0,0,0-.6187-0.7637,0.98369,0.98369,0,0,1,.0708-0.4736,1.37046,1.37046,0,0,1,.3618.3701s0.02,0.0088-.0517-0.1543a5.19323,5.19323,0,0,0-1.4541-1.6797,0.23154,0.23154,0,0,1-.1538-0.1465c-0.0103-.0605.1337-0.0507,0.247-0.0507,0.1138,0,.1446-0.0313.1558-0.1133a0.29926,0.29926,0,0,0-.1968-0.2149,0.52042,0.52042,0,0,0-.4121.0498,1.03517,1.03517,0,0,1-.5669-0.1025c-0.0723-.0313-0.062-0.0732.0308-0.0928a0.67833,0.67833,0,0,0,.5571-0.2773,4.15454,4.15454,0,0,1-1.2871.0185,1.50566,1.50566,0,0,1-.2691-0.2754c-0.0517-.0752.023-0.1045,0.0811-0.1045,0.061,0,.1279.1416,0.2622,0.1797a8.54754,8.54754,0,0,0,1.2168-.0459,0.63,0.63,0,0,0,.3389-0.2519c0.06-.0537.0083-0.1094-0.0669-0.1162-0.0752-.0078-0.3389.0547-0.437,0.0547-0.0962,0-.104,0-0.104-0.0704a2.80641,2.80641,0,0,1,.5039-0.3203,0.78935,0.78935,0,0,0,.1933-0.3408,0.1081,0.1081,0,0,1,.0899-0.081,0.63589,0.63589,0,0,1,.165.3613,1.1916,1.1916,0,0,1-.2842.8389,0.3802,0.3802,0,0,1-.1718.0878c0.0649,0.0782.6098,0.7403,0.892,1.1661,0.1128,0.1728.2437,0.3994,0.3697,0.6357,0.041,0.043.0874,0.0928,0.1133,0.1133a1.00129,1.00129,0,0,0,.9277.4521,1.73957,1.73957,0,0,0,1.4463-.5283A5.81085,5.81085,0,0,1,23.8814,4.41a2.74684,2.74684,0,0,0,.8149-0.3897,2.31581,2.31581,0,0,1-.0439.8252,3.78625,3.78625,0,0,0,.5508-0.7871,5.7482,5.7482,0,0,1,.3403-1.3857,4.45549,4.45549,0,0,1,1.6108-1.0781,5.66456,5.66456,0,0,1,.8081.0058,1.52519,1.52519,0,0,1,.7588.5332,1.195,1.195,0,0,0-1.31-.0303,7.96863,7.96863,0,0,0-1.6729,2.5655c-1.1982,2.1289-3.7119,2.082-4.478,2.0508L20.7295,6.702c0.0186,0.0459.0337,0.0879,0.0469,0.124,0.0498,0.1523.1309,0.626,0.2261,1.1787a1.25038,1.25038,0,0,0,.667.3301,1.20416,1.20416,0,0,0,1.0576-.4141l0.7602-1.0234c0.0318-.0449.0621-0.0449,0.0899,0a1.43141,1.43141,0,0,1,.1308,1.1484,1.35618,1.35618,0,0,1-1.1738.6826,3.35728,3.35728,0,0,1-.9609-0.1308,1.58993,1.58993,0,0,1-.5181-0.2852c0.0889,0.5098.1851,1.0498,0.2769,1.4551a9.38944,9.38944,0,0,0,.9795,2.0215c0.0517,0.2158-1.0411-.1348-1.1133-0.1045-0.0718.0312,0.269,1.665,0.207,1.6758a12.751,12.751,0,0,1-1.8262-.4737,3.34791,3.34791,0,0,1-.3398-0.6562c-0.0718-.0508-0.1338.042-0.2271,0.1152a0.71512,0.71512,0,0,0,.1143.5977c0.0928,0.081.4639,0.1533,0.5566,0.2168,0.0913,0.0625.1431,0.2256,0.2061,0.2676,0.062,0.041.2783,0.2158,0.2783,0.2158l-0.1572.0068h4.5078v7.1221l0.3403,0.0576a0.4045,0.4045,0,0,1,.2881.2461l0.542,1.9316,1.3526-.0029,0.0122-.4639a5.19,5.19,0,0,0-.2559-2.0312c-1.7651-3.4561-2.2251-5.8867-1.3032-8.2686a2.6505,2.6505,0,0,1,1.0273-1.1416c0.2007-.0302.2446-0.1318,0.0947-0.3037a2.84969,2.84969,0,0,1-.1796-1.2441,0.34714,0.34714,0,0,1-.0484-0.4092c0.1143-.2666.3701-0.1992,0.4102,0.082a2.854,2.854,0,0,0,.1538,1.4619,0.68119,0.68119,0,0,0,.5312.2989l0.7637,0.0508a0.55473,0.55473,0,0,0,.4522-0.2579c0.1699-.0419.2041,0.0264,0.104,0.2071a0.84133,0.84133,0,0,1-.4532.4189l-1.1518-.0713a1.62069,1.62069,0,0,0-1.438,1.667q-0.624,2.12984.6763,5.5889a8.6592,8.6592,0,0,1,1.0727,2.4697l0.0762,1.5205a1.32056,1.32056,0,0,0,.5566,1.1856,1.57954,1.57954,0,0,1,.8003.8935,2.054,2.054,0,0,0,.9917,1.2998,1.504,1.504,0,0,0,1.374.042,0.58027,0.58027,0,0,0,.0503-0.6504l-0.4502-1.1591a2.20292,2.20292,0,0,0-.541-0.7149c-0.0649-.1328-0.0029-0.2568.1831-0.2002L30.958,23.492l0.3345,0.4248,1.5239,3.9238,1.0791,0.3262L33.4244,24.95l0.3828,0.1485,0.4409,3.1591,0.4092,0.1592-0.625-4.4336q-4.848-4.26555-5.0191-7.4844c-0.1919-1.0966.1182-2.4921,0.7793-2.663,0.1509-.0284.2129,0.0117,0.1826,0.1171a3.74153,3.74153,0,0,0-.4126,2.544c0.253,2.4141,2.083,4.9785,5.5557,7.7344a4.53476,4.53476,0,0,1-.4819-1.501,14.79421,14.79421,0,0,1-2.5171-2.4854l0.2353-.4873a11.84335,11.84335,0,0,0,2.3599,1.8838c-0.0142-.0605-0.0029-0.1738-0.02-0.2275a19.1471,19.1471,0,0,1-2.1402-2.1514l0.2202-.5986a14.91494,14.91494,0,0,0,1.6719,1.4258l-0.0322-.3037a12.25125,12.25125,0,0,1-1.5088-1.6504l0.1919-.7832,1.0601,1.082-0.0279-.4443c-0.3091-.3916-0.5669-0.7637-0.9731-1.3282l0.1308-1,0.5694,0.8418a1.26461,1.26461,0,0,0-.1973-0.6709,10.8288,10.8288,0,0,0-2.3779-2.9658c-0.0142-.126.0972-0.208,0.2759-0.208a0.63792,0.63792,0,0,0,.2861,0c0.1289-.1768.0791-0.3477-0.1528-0.5137a0.64924,0.64924,0,0,0-.646.0957,1.18874,1.18874,0,0,1-.9502-0.2861,0.06413,0.06413,0,0,1,.0571-0.0937l0.7979-.3057v-0.1123a3.51255,3.51255,0,0,1-1.501.0556,0.58191,0.58191,0,0,1-.4761-0.5888c-0.0561-.126.0503-0.1465,0.1343-0.0762a0.6391,0.6391,0,0,0,.5888.3037,4.2439,4.2439,0,0,0,1.254-.1142,0.62853,0.62853,0,0,0,.4751-0.4932c0.019-.0674-0.0132-0.0859-0.0953-0.0586a1.05584,1.05584,0,0,1-.6919.085c-0.143.0039-.1289-0.0801,0.0269-0.1602a1.23119,1.23119,0,0,0,.8364-1.2539c0.0376-.1025.0825-0.1338,0.1319-0.0957a2.017,2.017,0,0,1-.1163,2.1982,0.16653,0.16653,0,0,0-.0498.125l0.0669,0.084a13.389,13.389,0,0,1,2.4761,4.8721c0.3662,1.7168.7739,6.1709,1.457,7.3916a9.64292,9.64292,0,0,0,.9488,1.9238,4.214,4.214,0,0,1-1.7578-.25l0.4921,3.749-2.6582-.7998-0.6738-1.8252a0.1189,0.1189,0,0,0-.208-0.0556,2.30084,2.30084,0,0,1-.9761.04c-0.1889-.0361-0.248-0.0244-0.2661.0742a6.8652,6.8652,0,0,0-.0171,1.0245,0.62039,0.62039,0,0,0,.3672.4414l0.3579,0.1347a0.58,0.58,0,0,1,.3643.2637,1.09987,1.09987,0,0,0,.3828.5088c0.1162,0.042.2061,0.0488,0.1792,0.2568a0.24357,0.24357,0,0,1-.2681.2354,0.59472,0.59472,0,0,1-.458-0.249,2.02671,2.02671,0,0,0-.8081-0.6582,1.916,1.916,0,0,0-1.4219.0087,4.6812,4.6812,0,0,0-1.6743.9258c-0.0688.042-.1157,0.0391-0.145-0.0097l0.166-.8819a0.40042,0.40042,0,0,1,.251-0.2842l1.9414-.5078,0.0327-1.4004a2.59584,2.59584,0,0,1-.9077-1.083,2.02175,2.02175,0,0,0-1.1001-1.1406,2.07209,2.07209,0,0,0-.7622-0.3672,0.27855,0.27855,0,0,1-.0278-0.0361c-0.1841-.0127-0.4951-0.0049-0.9351.0146a0.62673,0.62673,0,0,0-.4341.375l-0.1269.3604a0.66006,0.66006,0,0,1-.2588.3681,1.10226,1.10226,0,0,0-.501.3916,0.37025,0.37025,0,0,1-.0454.0899v0.0732a12.30357,12.30357,0,0,1-6.314,5.7842c-2.9267-1.0644-5.6958-4.2578-6.1899-5.7402v-0.0557a0.35325,0.35325,0,0,1-.0947-0.1465,1.11267,1.11267,0,0,0-.501-0.3916,0.66057,0.66057,0,0,1-.2593-0.3681l-0.1269-.3614a0.627,0.627,0,0,0-.4351-0.374,9.21174,9.21174,0,0,0-.9331-0.0146,0.34861,0.34861,0,0,1-.0288.0361,2.07574,2.07574,0,0,0-.7622.3672,2.0197,2.0197,0,0,0-1.0996,1.1406,2.6143,2.6143,0,0,1-.9082,1.083l0.0341,1.4004,1.94,0.5078a0.39842,0.39842,0,0,1,.251.2842l0.166,0.8818c-0.0293.0479-.0772,0.0518-0.145,0.0088a4.67965,4.67965,0,0,0-1.6729-.9248,1.91514,1.91514,0,0,0-1.4233-.0088,2.00509,2.00509,0,0,0-.8081.6582,0.60215,0.60215,0,0,1-.458.251,0.24619,0.24619,0,0,1-.2676-0.2373c-0.0274-.208.062-0.2148,0.1787-0.2568a1.1057,1.1057,0,0,0,.3833-0.5078,0.57988,0.57988,0,0,1,.3638-0.2657l0.3588-.1338a0.61976,0.61976,0,0,0,.3663-0.4414,6.82863,6.82863,0,0,0-.0162-1.0244c-0.019-.0986-0.0781-0.1103-0.267-0.0752a2.28461,2.28461,0,0,1-.9761-0.04,0.11829,0.11829,0,0,0-.207.0576l-0.6749,1.8242-2.6577.7998,0.4917-3.749a4.19948,4.19948,0,0,1-1.7578.249,9.71872,9.71872,0,0,0,.9497-1.9238c0.6831-1.2197,1.0904-5.6738,1.4571-7.3906a13.359,13.359,0,0,1,2.4751-4.8731l0.0668-.083a0.16741,0.16741,0,0,0-.0498-0.126,2.01438,2.01438,0,0,1-.1162-2.1972c0.0503-.0381.0933-0.0069,0.1324,0.0947a1.22786,1.22786,0,0,0,.8369,1.2539c0.1548,0.0811.1689,0.1651,0.0258,0.1611a1.05475,1.05475,0,0,1-.6918-0.0849c-0.0821-.0274-0.1143-0.0098-0.0953.0586a0.63219,0.63219,0,0,0,.4751.4941,4.33821,4.33821,0,0,0,1.2539.1133,0.64192,0.64192,0,0,0,.5904-0.3027c0.083-.0713.1899-0.0508,0.1318,0.0752a0.57979,0.57979,0,0,1-.4751.5888,3.51378,3.51378,0,0,1-1.501-.0566v0.1133L6.3311,11.866a0.06479,0.06479,0,0,1,.0571.0938,1.18448,1.18448,0,0,1-.9497.2861,0.65738,0.65738,0,0,0-.6474-0.0967c-0.231.1661-.2808,0.3389-0.1519,0.5147a0.63806,0.63806,0,0,0,.2861,0c0.1802,0,.2901.082,0.2749,0.208a10.85509,10.85509,0,0,0-2.3769,2.9658,1.25526,1.25526,0,0,0-.1958.6699l0.5678-.8418,0.1319,1.001c-0.4068.5645-.6651,0.9365-0.9736,1.3281l-0.0293.4444,1.061-1.0821,0.1919,0.7823a12.12027,12.12027,0,0,1-1.5088,1.6513l-0.0322.3038a15.01428,15.01428,0,0,0,1.6723-1.4268l0.2207,0.5996a19.02045,19.02045,0,0,1-2.1421,2.1514c-0.0156.0547-.0048,0.167-0.018,0.2275a11.885,11.885,0,0,0,2.3594-1.8838l0.2348,0.4873a14.86232,14.86232,0,0,1-2.5171,2.4864,4.57562,4.57562,0,0,1-.4819,1.5009c3.4731-2.7568,5.3042-5.3213,5.5571-7.7343a3.75342,3.75342,0,0,0-.414-2.545c-0.0303-.1054.0307-0.1455,0.1831-0.1172,0.6616,0.1709.9716,1.5665,0.7788,2.6631q-0.17071,3.21691-5.02,7.4844l-0.6241,4.4326,0.4082-.1582,0.441-3.1582,0.3837-.1494-0.4707,3.2168,1.0787-.3262,1.5253-3.9238,0.333-.4248,0.4078-.2168c0.186-.0566.248,0.0664,0.184,0.2002a2.20074,2.20074,0,0,0-.5419.7158l-0.4502,1.1582a0.58054,0.58054,0,0,0,.0503.6504,1.50052,1.50052,0,0,0,1.375-.043,2.05392,2.05392,0,0,0,.9907-1.2988,1.57607,1.57607,0,0,1,.8003-0.8935,1.32157,1.32157,0,0,0,.5571-1.1856l0.0757-1.5205a8.65146,8.65146,0,0,1,1.0732-2.4697q1.2957-3.4644.6758-5.5889a1.61852,1.61852,0,0,0-1.438-1.666l-1.1518.0703a0.84494,0.84494,0,0,1-.4532-0.4189c-0.101-.1817-0.0659-0.2491.1031-0.208a0.55422,0.55422,0,0,0,.4531.2587l0.7637-.0507a0.679,0.679,0,0,0,.5312-0.2998A2.86419,2.86419,0,0,0,9.6841,9.22829Z" transform="translate(-0.05544 -0.05468)"/><polygon class="cls-14" points="13.137 17.783 13.565 16.465 13.538 16.445 12.406 15.615 13.842 15.615 14.281 14.262 14.711 15.588 14.728 15.588 14.736 15.615 16.122 15.615 14.988 16.439 15.435 17.815 14.264 16.964 13.137 17.783"/><polygon class="cls-15" points="13.137 17.783 13.565 16.465 13.538 16.445 12.406 15.615 13.842 15.615 14.281 14.262 14.711 15.588 14.728 15.588 14.736 15.615 16.122 15.615 14.988 16.439 15.435 17.815 14.264 16.964 13.137 17.783"/><polygon class="cls-14" points="17.046 17.783 17.475 16.465 17.446 16.445 16.315 15.615 17.751 15.615 18.191 14.262 18.621 15.588 18.637 15.588 18.646 15.615 20.031 15.615 18.897 16.439 19.345 17.815 18.173 16.964 17.046 17.783"/><polygon class="cls-15" points="17.046 17.783 17.475 16.465 17.446 16.445 16.315 15.615 17.751 15.615 18.191 14.262 18.621 15.588 18.637 15.588 18.646 15.615 20.031 15.615 18.897 16.439 19.345 17.815 18.173 16.964 17.046 17.783"/><polygon class="cls-14" points="20.999 17.783 21.428 16.465 21.399 16.445 20.269 15.615 21.704 15.615 22.144 14.262 22.574 15.588 22.59 15.588 22.599 15.615 23.984 15.615 22.85 16.439 23.298 17.815 22.126 16.964 20.999 17.783"/><polygon class="cls-15" points="20.999 17.783 21.428 16.465 21.399 16.445 20.269 15.615 21.704 15.615 22.144 14.262 22.574 15.588 22.59 15.588 22.599 15.615 23.984 15.615 22.85 16.439 23.298 17.815 22.126 16.964 20.999 17.783"/><path class="cls-1" d="M17.9854,21.30649a1.10851,1.10851,0,0,0-.3223.541l-0.0097.6943,0.1147,0.4268,0.0474,1.0927a0.71131,0.71131,0,0,1-.4571.3135,4.972,4.972,0,0,0-.1049.6992,1.21541,1.21541,0,0,1-.3033.4707,1.0338,1.0338,0,0,0,.0093.3516c0.0479,0.1514.02,2.1006,0.0957,2.2236a2.77652,2.77652,0,0,1,.1421.6534c-0.0078.2285-.0869,0.3466-0.2378,0.3525-0.1152.0146-.189-0.0625-0.2183-0.2266a15.35307,15.35307,0,0,0-.0668-1.749,2.53863,2.53863,0,0,0-.0889-0.6514l-0.4331-.7275a1.07991,1.07991,0,0,0-.2901-0.3037l0.1192-.3125a1.97261,1.97261,0,0,0,.0376-0.4766,1.00756,1.00756,0,0,0,.7314-0.3506,1.41585,1.41585,0,0,0-.3042-1.7958,1.10741,1.10741,0,0,0-.8208-0.0762,0.78483,0.78483,0,0,0-.7231.5888c-0.0322.2842,0.039,0.3858,0.2417,0.375a0.86191,0.86191,0,0,0,.3384-0.3603,0.8136,0.8136,0,0,1,.708-0.0527,0.93664,0.93664,0,0,1,.2519,1.0068,0.602,0.602,0,0,1-.6699.1611,0.27729,0.27729,0,0,1-.1621-0.3554,0.18206,0.18206,0,0,1,.2759-0.0332,0.22191,0.22191,0,0,0,.3281-0.0235,0.26675,0.26675,0,0,0-.1382-0.3662,0.62733,0.62733,0,0,0-.9219.6367,0.61531,0.61531,0,0,0,.4458.6074,0.69829,0.69829,0,0,1,.0103.3243,1.58713,1.58713,0,0,1-.314.5595,0.6236,0.6236,0,0,1-.4839.0098,1.3414,1.3414,0,0,1-.4843-0.9023,0.94773,0.94773,0,0,0-.4278-0.6563,0.35981,0.35981,0,0,1-.3052-0.3037c0-.2275.2139-0.2695,0.5523-0.2383a0.72863,0.72863,0,0,0,.5117-0.5088c0.0171-.0283.1319-0.1845,0.1392-0.2119a0.76688,0.76688,0,0,0,.0019-0.2812c0.002-.0694.0108-0.1524,0.0108-0.1534a0.60016,0.60016,0,0,1,.5664-0.5615,0.1039,0.1039,0,0,0,.0566-0.0967c-0.0239-.8007.3804-1.1337,1.2984-1.1894a0.94617,0.94617,0,0,1,1.2509-.5488v1.416Z" transform="translate(-0.05544 -0.05468)"/><path class="cls-16" d="M17.9854,21.30649a1.10851,1.10851,0,0,0-.3223.541l-0.0097.6943,0.1147,0.4268,0.0474,1.0927a0.71131,0.71131,0,0,1-.4571.3135,4.972,4.972,0,0,0-.1049.6992,1.21541,1.21541,0,0,1-.3033.4707,1.0338,1.0338,0,0,0,.0093.3516c0.0479,0.1514.02,2.1006,0.0957,2.2236a2.77652,2.77652,0,0,1,.1421.6534c-0.0078.2285-.0869,0.3466-0.2378,0.3525-0.1152.0146-.189-0.0625-0.2183-0.2266a15.35307,15.35307,0,0,0-.0668-1.749,2.53863,2.53863,0,0,0-.0889-0.6514l-0.4331-.7275a1.07991,1.07991,0,0,0-.2901-0.3037l0.1192-.3125a1.97261,1.97261,0,0,0,.0376-0.4766,1.00756,1.00756,0,0,0,.7314-0.3506,1.41585,1.41585,0,0,0-.3042-1.7958,1.10741,1.10741,0,0,0-.8208-0.0762,0.78483,0.78483,0,0,0-.7231.5888c-0.0322.2842,0.039,0.3858,0.2417,0.375a0.86191,0.86191,0,0,0,.3384-0.3603,0.8136,0.8136,0,0,1,.708-0.0527,0.93664,0.93664,0,0,1,.2519,1.0068,0.602,0.602,0,0,1-.6699.1611,0.27729,0.27729,0,0,1-.1621-0.3554,0.18206,0.18206,0,0,1,.2759-0.0332,0.22191,0.22191,0,0,0,.3281-0.0235,0.26675,0.26675,0,0,0-.1382-0.3662,0.62733,0.62733,0,0,0-.9219.6367,0.61531,0.61531,0,0,0,.4458.6074,0.69829,0.69829,0,0,1,.0103.3243,1.58713,1.58713,0,0,1-.314.5595,0.6236,0.6236,0,0,1-.4839.0098,1.3414,1.3414,0,0,1-.4843-0.9023,0.94773,0.94773,0,0,0-.4278-0.6563,0.35981,0.35981,0,0,1-.3052-0.3037c0-.2275.2139-0.2695,0.5523-0.2383a0.72863,0.72863,0,0,0,.5117-0.5088c0.0171-.0283.1319-0.1845,0.1392-0.2119a0.76688,0.76688,0,0,0,.0019-0.2812c0.002-.0694.0108-0.1524,0.0108-0.1534a0.60016,0.60016,0,0,1,.5664-0.5615,0.1039,0.1039,0,0,0,.0566-0.0967c-0.0239-.8007.3804-1.1337,1.2984-1.1894a0.94617,0.94617,0,0,1,1.2509-.5488v1.416Z" transform="translate(-0.05544 -0.05468)"/><path class="cls-1" d="M15.2012,26.01839a0.88444,0.88444,0,0,0,.4741-0.2295,0.44529,0.44529,0,0,0,.1089.1855,15.02367,15.02367,0,0,0-.0307,1.8555l0.0776,0.125a0.52741,0.52741,0,0,1-.0308.3643,0.197,0.197,0,0,1-.209-0.0284,0.67828,0.67828,0,0,1-.205-0.374,5.96242,5.96242,0,0,1-.0542-0.9599,0.36988,0.36988,0,0,1-.0928-0.2344Z" transform="translate(-0.05544 -0.05468)"/><path class="cls-16" d="M15.2012,26.01839a0.88444,0.88444,0,0,0,.4741-0.2295,0.44529,0.44529,0,0,0,.1089.1855,15.02367,15.02367,0,0,0-.0307,1.8555l0.0776,0.125a0.52741,0.52741,0,0,1-.0308.3643,0.197,0.197,0,0,1-.209-0.0284,0.67828,0.67828,0,0,1-.205-0.374,5.96242,5.96242,0,0,1-.0542-0.9599,0.36988,0.36988,0,0,1-.0928-0.2344Z" transform="translate(-0.05544 -0.05468)"/><path class="cls-1" d="M19.4112,22.26539a0.93692,0.93692,0,0,0-.4668-0.9404l-0.0113-1.4033a0.58626,0.58626,0,0,1,.563-0.0889,1.04771,1.04771,0,0,1,.3814.5332,0.96256,0.96256,0,0,1,.9878.2842,0.61888,0.61888,0,0,1,0,.4746,2.47243,2.47243,0,0,1,.77.6084,0.41022,0.41022,0,0,1-.0088.5694,0.19829,0.19829,0,0,0,0,.2099l0.3789,0.4844a0.42622,0.42622,0,0,1-.084.6836,0.26238,0.26238,0,0,0,.0088.3057,2.29146,2.29146,0,0,1,.294,1.2724c-0.0889.2197-.2471,0.2393-0.4751,0.0567l-0.0098-1.168c-0.1128-.2666-0.4268-0.1611-0.417.1133l-0.001,1.3496a3.7913,3.7913,0,0,0,.105.542c0.043,0.1015.019,1.416,0.019,1.416a1.24763,1.24763,0,0,1-.143.5517l-0.3042.3897a0.063,0.063,0,0,1-.0947-0.0488,7.35829,7.35829,0,0,0,.0288-2.2432l-0.5508-1.2441a5.05231,5.05231,0,0,1-.0381-1.2539,2.09474,2.09474,0,0,1,.333-0.4952c0.0928-.2597.0078-0.3642-0.2568-0.3125a1.4119,1.4119,0,0,0-.4663,1.3106,2.49074,2.49074,0,0,1,.0952.9043,0.35191,0.35191,0,0,0-.1231.2373,4.09427,4.09427,0,0,0-.0151,1.0703l-0.062,1.1621a0.80752,0.80752,0,0,1-.3037.3525,14.504,14.504,0,0,0-.1343-2.6298,1.11226,1.11226,0,0,1,.019-0.9883,1.27759,1.27759,0,0,0,.0381-0.5313l-0.1318-.4795a2.18607,2.18607,0,0,1,.0757-1.0547" transform="translate(-0.05544 -0.05468)"/><path class="cls-16" d="M19.4112,22.26539a0.93692,0.93692,0,0,0-.4668-0.9404l-0.0113-1.4033a0.58626,0.58626,0,0,1,.563-0.0889,1.04771,1.04771,0,0,1,.3814.5332,0.96256,0.96256,0,0,1,.9878.2842,0.61888,0.61888,0,0,1,0,.4746,2.47243,2.47243,0,0,1,.77.6084,0.41022,0.41022,0,0,1-.0088.5694,0.19829,0.19829,0,0,0,0,.2099l0.3789,0.4844a0.42622,0.42622,0,0,1-.084.6836,0.26238,0.26238,0,0,0,.0088.3057,2.29146,2.29146,0,0,1,.294,1.2724c-0.0889.2197-.2471,0.2393-0.4751,0.0567l-0.0098-1.168c-0.1128-.2666-0.4268-0.1611-0.417.1133l-0.001,1.3496a3.7913,3.7913,0,0,0,.105.542c0.043,0.1015.019,1.416,0.019,1.416a1.24763,1.24763,0,0,1-.143.5517l-0.3042.3897a0.063,0.063,0,0,1-.0947-0.0488,7.35829,7.35829,0,0,0,.0288-2.2432l-0.5508-1.2441a5.05231,5.05231,0,0,1-.0381-1.2539,2.09474,2.09474,0,0,1,.333-0.4952c0.0928-.2597.0078-0.3642-0.2568-0.3125a1.4119,1.4119,0,0,0-.4663,1.3106,2.49074,2.49074,0,0,1,.0952.9043,0.35191,0.35191,0,0,0-.1231.2373,4.09427,4.09427,0,0,0-.0151,1.0703l-0.062,1.1621a0.80752,0.80752,0,0,1-.3037.3525,14.504,14.504,0,0,0-.1343-2.6298,1.11226,1.11226,0,0,1,.019-0.9883,1.27759,1.27759,0,0,0,.0381-0.5313l-0.1318-.4795A2.18607,2.18607,0,0,1,19.4112,22.26539Z" transform="translate(-0.05544 -0.05468)"/><path class="cls-17" d="M18.11331,19.04868a0.342,0.342,0,1,0,.3428-0.3418,0.342,0.342,0,0,0-.3428.3418m0.1631,2.6445a0.65624,0.65624,0,0,1-.293-0.3955v-1.5908a0.7927,0.7927,0,1,1,.9488,0l0.0122,1.6406a0.65859,0.65859,0,0,1-.293.3418,0.28731,0.28731,0,0,1-.375.0039" transform="translate(-0.05544 -0.05468)"/><path class="cls-18" d="M18.11331,19.04868a0.342,0.342,0,1,0,.3428-0.3418A0.342,0.342,0,0,0,18.11331,19.04868Zm0.1631,2.6445a0.65624,0.65624,0,0,1-.293-0.3955v-1.5908a0.7927,0.7927,0,1,1,.9488,0l0.0122,1.6406a0.65859,0.65859,0,0,1-.293.3418A0.28731,0.28731,0,0,1,18.2764,21.69319Z" transform="translate(-0.05544 -0.05468)"/><path class="cls-2" d="M18.11331,19.04868a0.342,0.342,0,1,1,.3428.3417,0.34332,0.34332,0,0,1-.3428-0.3417" transform="translate(-0.05544 -0.05468)"/><circle class="cls-16" cx="18.40029" cy="18.99398" r="0.3419"/></svg>